<?xml version="1.0" encoding="UTF-8"?>
<!--Generator: Apple Native CoreSVG 341-->
<!DOCTYPE svg
PUBLIC "-//W3C//DTD SVG 1.1//EN"
       "http://www.w3.org/Graphics/SVG/1.1/DTD/svg11.dtd">
<svg version="1.1" xmlns="http://www.w3.org/2000/svg" xmlns:xlink="http://www.w3.org/1999/xlink" viewBox="0 0 3300 2200">
 <g id="Notes">
  <rect height="2200" id="artboard" style="fill:white;opacity:1" width="3300" x="0" y="0"/>
  <line style="fill:none;stroke:black;opacity:1;stroke-width:0.5;" x1="263" x2="3036" y1="292" y2="292"/>
  <text style="stroke:none;fill:black;font-family:sans-serif;font-size:13;font-weight:bold;" transform="matrix(1 0 0 1 263 322)">Weight/Scale Variations</text>
  <text style="stroke:none;fill:black;font-family:sans-serif;font-size:13;text-anchor:middle;" transform="matrix(1 0 0 1 559.711 322)">Ultralight</text>
  <text style="stroke:none;fill:black;font-family:sans-serif;font-size:13;text-anchor:middle;" transform="matrix(1 0 0 1 856.422 322)">Thin</text>
  <text style="stroke:none;fill:black;font-family:sans-serif;font-size:13;text-anchor:middle;" transform="matrix(1 0 0 1 1153.13 322)">Light</text>
  <text style="stroke:none;fill:black;font-family:sans-serif;font-size:13;text-anchor:middle;" transform="matrix(1 0 0 1 1449.84 322)">Regular</text>
  <text style="stroke:none;fill:black;font-family:sans-serif;font-size:13;text-anchor:middle;" transform="matrix(1 0 0 1 1746.56 322)">Medium</text>
  <text style="stroke:none;fill:black;font-family:sans-serif;font-size:13;text-anchor:middle;" transform="matrix(1 0 0 1 2043.27 322)">Semibold</text>
  <text style="stroke:none;fill:black;font-family:sans-serif;font-size:13;text-anchor:middle;" transform="matrix(1 0 0 1 2339.98 322)">Bold</text>
  <text style="stroke:none;fill:black;font-family:sans-serif;font-size:13;text-anchor:middle;" transform="matrix(1 0 0 1 2636.69 322)">Heavy</text>
  <text style="stroke:none;fill:black;font-family:sans-serif;font-size:13;text-anchor:middle;" transform="matrix(1 0 0 1 2933.4 322)">Black</text>
  <line style="fill:none;stroke:black;opacity:1;stroke-width:0.5;" x1="263" x2="3036" y1="1903" y2="1903"/>
  <g transform="matrix(0.2 0 0 0.2 263 1933)">
   <path d="m46.2402 4.15039c21.7773 0 39.4531-17.627 39.4531-39.4043s-17.6758-39.4043-39.4531-39.4043c-21.7285 0-39.4043 17.627-39.4043 39.4043s17.6758 39.4043 39.4043 39.4043Zm0-7.42188c-17.6758 0-31.9336-14.3066-31.9336-31.9824s14.2578-31.9824 31.9336-31.9824 31.9824 14.3066 31.9824 31.9824-14.3066 31.9824-31.9824 31.9824Zm3.61328-17.7734v-28.4668c0-2.24609-1.46484-3.75977-3.71094-3.75977-2.14844 0-3.61328 1.51367-3.61328 3.75977v28.4668c0 2.19727 1.46484 3.71094 3.61328 3.71094 2.24609 0 3.71094-1.51367 3.71094-3.71094Zm-17.8223-10.5957h28.418c2.19727 0 3.71094-1.46484 3.71094-3.61328 0-2.19727-1.51367-3.71094-3.71094-3.71094h-28.418c-2.24609 0-3.75977 1.51367-3.75977 3.71094 0 2.14844 1.51367 3.61328 3.75977 3.61328Z"/>
  </g>
  <g transform="matrix(0.2 0 0 0.2 281.506 1933)">
   <path d="m58.5449 14.5508c27.4902 0 49.8047-22.3145 49.8047-49.8047s-22.3145-49.8047-49.8047-49.8047-49.8047 22.3145-49.8047 49.8047 22.3145 49.8047 49.8047 49.8047Zm0-8.30078c-22.9492 0-41.5039-18.5547-41.5039-41.5039s18.5547-41.5039 41.5039-41.5039 41.5039 18.5547 41.5039 41.5039-18.5547 41.5039-41.5039 41.5039Zm4.05273-23.0957v-36.9141c0-2.49023-1.70898-4.19922-4.15039-4.19922-2.39258 0-4.05273 1.70898-4.05273 4.19922v36.9141c0 2.44141 1.66016 4.15039 4.05273 4.15039 2.44141 0 4.15039-1.66016 4.15039-4.15039Zm-22.5586-14.4043h36.9629c2.44141 0 4.15039-1.61133 4.15039-4.00391 0-2.44141-1.70898-4.15039-4.15039-4.15039h-36.9629c-2.49023 0-4.15039 1.70898-4.15039 4.15039 0 2.39258 1.66016 4.00391 4.15039 4.00391Z"/>
  </g>
  <g transform="matrix(0.2 0 0 0.2 304.924 1933)">
   <path d="m74.8535 28.3203c35.1074 0 63.623-28.4668 63.623-63.5742s-28.5156-63.623-63.623-63.623-63.5742 28.5156-63.5742 63.623 28.4668 63.5742 63.5742 63.5742Zm0-9.08203c-30.127 0-54.4922-24.3652-54.4922-54.4922s24.3652-54.4922 54.4922-54.4922 54.4922 24.3652 54.4922 54.4922-24.3652 54.4922-54.4922 54.4922Zm4.44336-30.3223v-48.4863c0-2.73438-1.85547-4.63867-4.54102-4.63867-2.58789 0-4.44336 1.9043-4.44336 4.63867v48.4863c0 2.68555 1.85547 4.58984 4.44336 4.58984 2.68555 0 4.54102-1.85547 4.54102-4.58984Zm-28.7109-19.7754h48.4863c2.68555 0 4.58984-1.80664 4.58984-4.39453 0-2.73438-1.85547-4.58984-4.58984-4.58984h-48.4863c-2.73438 0-4.58984 1.85547-4.58984 4.58984 0 2.58789 1.85547 4.39453 4.58984 4.39453Z"/>
  </g>
  <text style="stroke:none;fill:black;font-family:sans-serif;font-size:13;font-weight:bold;" transform="matrix(1 0 0 1 263 1953)">Design Variations</text>
  <text style="stroke:none;fill:black;font-family:sans-serif;font-size:13;" transform="matrix(1 0 0 1 263 1971)">Symbols are supported in up to nine weights and three scales.</text>
  <text style="stroke:none;fill:black;font-family:sans-serif;font-size:13;" transform="matrix(1 0 0 1 263 1989)">For optimal layout with text and other symbols, vertically align</text>
  <text style="stroke:none;fill:black;font-family:sans-serif;font-size:13;" transform="matrix(1 0 0 1 263 2007)">symbols with the adjacent text.</text>
  <line style="fill:none;stroke:#00AEEF;stroke-width:0.5;opacity:1.0;" x1="776" x2="776" y1="1919" y2="1933"/>
  <g transform="matrix(0.2 0 0 0.2 776 1933)">
   <path d="m16.5527 0.78125c2.58789 0 3.85742-0.976562 4.78516-3.71094l20.5566-57.5195h0.244141l20.6055 57.5195c0.927734 2.73438 2.19727 3.71094 4.73633 3.71094 2.58789 0 4.24805-1.5625 4.24805-4.00391 0-0.830078-0.146484-1.61133-0.537109-2.63672l-22.9004-60.9863c-1.12305-2.97852-3.125-4.49219-6.25-4.49219-3.02734 0-5.07812 1.46484-6.15234 4.44336l-22.9004 61.084c-0.390625 1.02539-0.537109 1.80664-0.537109 2.63672 0 2.44141 1.5625 3.95508 4.10156 3.95508Zm10.2051-20.9473h30.6641c2.00195 0 3.66211-1.66016 3.66211-3.66211 0-2.05078-1.66016-3.66211-3.66211-3.66211h-30.6641c-2.00195 0-3.66211 1.61133-3.66211 3.66211 0 2.00195 1.66016 3.66211 3.66211 3.66211Z"/>
  </g>
  <line style="fill:none;stroke:#00AEEF;stroke-width:0.5;opacity:1.0;" x1="792.836" x2="792.836" y1="1919" y2="1933"/>
  <text style="stroke:none;fill:black;font-family:sans-serif;font-size:13;font-weight:bold;" transform="matrix(1 0 0 1 776 1953)">Margins</text>
  <text style="stroke:none;fill:black;font-family:sans-serif;font-size:13;" transform="matrix(1 0 0 1 776 1971)">Leading and trailing margins on the left and right side of each symbol</text>
  <text style="stroke:none;fill:black;font-family:sans-serif;font-size:13;" transform="matrix(1 0 0 1 776 1989)">can be adjusted by modifying the x-location of the margin guidelines.</text>
  <text style="stroke:none;fill:black;font-family:sans-serif;font-size:13;" transform="matrix(1 0 0 1 776 2007)">Modifications are automatically applied proportionally to all</text>
  <text style="stroke:none;fill:black;font-family:sans-serif;font-size:13;" transform="matrix(1 0 0 1 776 2025)">scales and weights.</text>
  <g transform="matrix(0.2 0 0 0.2 1289 1933)">
   <path d="m14.209 13.1348 7.86133 7.86133c4.29688 4.39453 9.32617 4.10156 13.8672-1.02539l60.6934-68.2129-4.88281-4.88281-60.2539 67.6758c-1.80664 1.95312-3.4668 2.44141-5.81055 0.0976562l-5.17578-5.12695c-2.29492-2.29492-1.80664-3.95508 0.195312-5.81055l67.4805-62.1582-4.88281-4.83398-68.0664 62.5977c-4.98047 4.58984-5.32227 9.47266-1.02539 13.8184Zm44.873-97.4609c-2.05078 2.00195-2.24609 4.88281-1.07422 6.78711 1.12305 1.80664 3.4668 3.02734 6.5918 2.24609 5.85938-1.66016 12.5977-2.39258 18.8965 0.927734l-2.68555 7.12891c-1.61133 4.00391-0.732422 6.88477 1.70898 9.42383l10.2539 10.3027c2.34375 2.39258 4.54102 2.44141 7.08008 1.95312l4.44336-0.732422 2.58789 2.53906-0.195312 2.24609c-0.0976562 2.29492 0.537109 4.29688 2.7832 6.49414l3.36914 3.32031c2.29492 2.29492 5.51758 2.49023 7.8125 0.195312l12.9883-13.0371c2.29492-2.34375 2.14844-5.37109-0.195312-7.66602l-3.41797-3.41797c-2.19727-2.19727-4.05273-3.02734-6.34766-2.88086l-2.34375 0.244141-2.44141-2.44141 1.02539-4.6875c0.634766-2.73438-0.244141-4.98047-2.88086-7.61719l-11.2793-11.1816c-12.9395-12.8418-35.5957-11.0352-46.6797-0.146484Zm7.08008 2.05078c8.78906-6.39648 25.9766-5.66406 33.6914 1.95312l12.3047 12.207c1.02539 1.02539 1.2207 1.80664 0.927734 3.32031l-1.46484 6.64062 6.73828 6.68945 4.39453-0.244141c1.12305-0.0488281 1.51367 0.0488281 2.34375 0.878906l2.53906 2.49023-10.8398 10.8398-2.49023-2.49023c-0.830078-0.878906-0.976562-1.2207-0.927734-2.39258l0.292969-4.3457-6.68945-6.73828-6.83594 1.17188c-1.41602 0.292969-2.05078 0.195312-3.17383-0.878906l-8.93555-8.88672c-1.07422-1.02539-1.17188-1.70898-0.488281-3.36914l4.58984-11.4746c-6.10352-6.34766-17.041-7.51953-25.5859-4.58984-0.683594 0.244141-0.927734-0.390625-0.390625-0.78125Z"/>
  </g>
  <text style="stroke:none;fill:black;font-family:sans-serif;font-size:13;font-weight:bold;" transform="matrix(1 0 0 1 1289 1953)">Exporting</text>
  <text style="stroke:none;fill:black;font-family:sans-serif;font-size:13;" transform="matrix(1 0 0 1 1289 1971)">Symbols should be outlined when exporting to ensure the</text>
  <text style="stroke:none;fill:black;font-family:sans-serif;font-size:13;" transform="matrix(1 0 0 1 1289 1989)">design is preserved when submitting to Xcode.</text>
  <text id="template-version" style="stroke:none;fill:black;font-family:sans-serif;font-size:13;text-anchor:end;" transform="matrix(1 0 0 1 3036 1933)">Template v.2.0</text>
  <text style="stroke:none;fill:black;font-family:sans-serif;font-size:13;text-anchor:end;" transform="matrix(1 0 0 1 3036 1951)">Requires Xcode 12 or greater</text>
  <text id="descriptive-name" style="stroke:none;fill:black;font-family:sans-serif;font-size:13;text-anchor:end;" transform="matrix(1 0 0 1 3036 1969)">Generated from sparkle.text.clipboard</text>
  <text style="stroke:none;fill:black;font-family:sans-serif;font-size:13;text-anchor:end;" transform="matrix(1 0 0 1 3036 1987)">Typeset at 100.0 points</text>
  <text style="stroke:none;fill:black;font-family:sans-serif;font-size:13;" transform="matrix(1 0 0 1 263 726)">Small</text>
  <text style="stroke:none;fill:black;font-family:sans-serif;font-size:13;" transform="matrix(1 0 0 1 263 1156)">Medium</text>
  <text style="stroke:none;fill:black;font-family:sans-serif;font-size:13;" transform="matrix(1 0 0 1 263 1586)">Large</text>
 </g>
 <g id="Guides">
  <g id="H-reference" style="fill:#27AAE1;stroke:none;" transform="matrix(1 0 0 1 339 696)">
   <path d="M0.993654 0L3.63775 0L29.3281-67.1323L30.0303-67.1323L30.0303-70.459L28.1226-70.459ZM11.6885-24.4799L46.9815-24.4799L46.2315-26.7285L12.4385-26.7285ZM55.1196 0L57.7637 0L30.6382-70.459L29.4326-70.459L29.4326-67.1323Z"/>
  </g>
  <line id="Baseline-S" style="fill:none;stroke:#27AAE1;opacity:1;stroke-width:0.5;" x1="263" x2="3036" y1="696" y2="696"/>
  <line id="Capline-S" style="fill:none;stroke:#27AAE1;opacity:1;stroke-width:0.5;" x1="263" x2="3036" y1="625.541" y2="625.541"/>
  <g id="H-reference" style="fill:#27AAE1;stroke:none;" transform="matrix(1 0 0 1 339 1126)">
   <path d="M0.993654 0L3.63775 0L29.3281-67.1323L30.0303-67.1323L30.0303-70.459L28.1226-70.459ZM11.6885-24.4799L46.9815-24.4799L46.2315-26.7285L12.4385-26.7285ZM55.1196 0L57.7637 0L30.6382-70.459L29.4326-70.459L29.4326-67.1323Z"/>
  </g>
  <line id="Baseline-M" style="fill:none;stroke:#27AAE1;opacity:1;stroke-width:0.5;" x1="263" x2="3036" y1="1126" y2="1126"/>
  <line id="Capline-M" style="fill:none;stroke:#27AAE1;opacity:1;stroke-width:0.5;" x1="263" x2="3036" y1="1055.54" y2="1055.54"/>
  <g id="H-reference" style="fill:#27AAE1;stroke:none;" transform="matrix(1 0 0 1 339 1556)">
   <path d="M0.993654 0L3.63775 0L29.3281-67.1323L30.0303-67.1323L30.0303-70.459L28.1226-70.459ZM11.6885-24.4799L46.9815-24.4799L46.2315-26.7285L12.4385-26.7285ZM55.1196 0L57.7637 0L30.6382-70.459L29.4326-70.459L29.4326-67.1323Z"/>
  </g>
  <line id="Baseline-L" style="fill:none;stroke:#27AAE1;opacity:1;stroke-width:0.5;" x1="263" x2="3036" y1="1556" y2="1556"/>
  <line id="Capline-L" style="fill:none;stroke:#27AAE1;opacity:1;stroke-width:0.5;" x1="263" x2="3036" y1="1485.54" y2="1485.54"/>
  <line id="right-margin" style="fill:none;stroke:#00AEEF;stroke-width:0.5;opacity:1.0;" x1="1503.37" x2="1503.37" y1="1030.79" y2="1150.12"/>
  <line id="left-margin" style="fill:none;stroke:#00AEEF;stroke-width:0.5;opacity:1.0;" x1="1396.32" x2="1396.32" y1="1030.79" y2="1150.12"/>
 </g>
 <g id="Symbols">
  <g id="Black-L" transform="matrix(1 0 0 1 2860.18 1556)">
   <path d="M48.2842-19.6198L98.2642-19.6198C100.79-19.6198 102.703-21.5891 102.703-24.1166C102.703-26.5649 100.79-28.4758 98.2642-28.4758L48.2842-28.4758C45.6995-28.4758 43.7874-26.5649 43.7874-24.1166C43.7874-21.5891 45.6995-19.6198 48.2842-19.6198ZM48.2842 3.60909L78.3681 3.60909C80.8748 3.60909 82.8065 1.61774 82.8065-0.888943C82.8065-3.33602 80.8956-5.24815 78.3681-5.24815L48.2842-5.24815C45.6995-5.24815 43.7874-3.33602 43.7874-0.888943C43.7874 1.61774 45.7203 3.60909 48.2842 3.60909ZM39.8892 40.0156L106.522 40.0156C121.157 40.0156 130.348 30.7668 130.348 15.8947L130.348-78.7069C130.348-93.4749 121.239-102.829 106.751-102.829L105.71-102.829C106.548-101.103 106.957-99.0624 106.957-96.8688L106.957-90.3706C106.957-88.0117 106.528-85.8465 105.649-83.9953L106.219-83.9953C109.533-83.9953 111.515-81.8234 111.515-78.546L111.515 15.7338C111.515 19.1141 109.409 21.2039 105.906 21.2039L40.5254 21.2039C37.0023 21.2039 34.8969 19.1141 34.8969 15.7338L34.8969-78.546C34.8969-81.8234 36.8774-83.9953 40.2131-83.9953L40.7842-83.9953C39.904-85.8465 39.4744-88.0117 39.4744-90.3706L39.4744-96.8688C39.4744-99.0624 39.8832-101.103 40.7217-102.829L39.681-102.829C25.1715-102.829 16.084-93.4749 16.084-78.7069L16.084 15.8947C16.084 30.7668 25.2548 40.0156 39.8892 40.0156ZM53.9558-82.9496L92.455-82.9496C96.7245-82.9496 99.298-85.6595 99.298-90.2423L99.298-96.87C99.298-101.454 96.7245-104.163 92.455-104.163L88.6997-104.163C88.1075-112.181 81.4707-118.581 73.2158-118.581C64.9622-118.581 58.3241-112.181 57.7111-104.163L53.9558-104.163C49.6875-104.163 47.1336-101.454 47.1336-96.87L47.1336-90.2423C47.1336-85.6595 49.6875-82.9496 53.9558-82.9496ZM73.2158-97.7259C70.0019-97.7259 67.3908-100.397 67.3908-103.551C67.3908-106.708 70.0019-109.298 73.2158-109.298C76.4298-109.298 79.02-106.708 79.02-103.551C79.02-100.397 76.4298-97.7259 73.2158-97.7259ZM59.5779-36.9579C60.5709-36.9579 61.3263-37.7705 61.5431-38.822C62.237-43.9077 62.944-46.746 64.7685-48.5497C66.5721-50.3742 69.4301-51.08 74.495-51.7738C75.5673-51.9919 76.3603-52.7085 76.3603-53.7391C76.3603-54.7334 75.5673-55.4875 74.495-55.7264C69.4301-56.4202 66.5721-57.126 64.7685-58.9297C62.944-60.7334 62.237-63.5925 61.5431-68.6783C61.3263-69.7297 60.5709-70.5215 59.5779-70.5215C58.5264-70.5215 57.8306-69.7297 57.6126-68.6783C56.9187-63.5925 56.2129-60.7334 54.3884-58.9297C52.5848-57.126 49.7256-56.4202 44.6607-55.7264C43.5884-55.4875 42.7954-54.7334 42.7954-53.7391C42.7954-52.7085 43.5884-51.9919 44.6607-51.7738C49.7256-51.08 52.5848-50.3742 54.3884-48.5497C56.2129-46.746 56.9187-43.9077 57.6126-38.822C57.8306-37.7705 58.5264-36.9579 59.5779-36.9579Z"/>
  </g>
  <g id="Heavy-L" transform="matrix(1 0 0 1 2564.51 1556)">
   <path d="M46.515-18.7398L97.9344-18.7398C100.354-18.7398 102.2-20.6247 102.2-23.05C102.2-25.4006 100.354-27.2409 97.9344-27.2409L46.515-27.2409C44.0507-27.2409 42.2048-25.4006 42.2048-23.05C42.2048-20.6247 44.0507-18.7398 46.515-18.7398ZM46.515 4.60503L77.0557 4.60503C79.4509 4.60503 81.3213 2.68434 81.3213 0.289141C81.3213-2.05582 79.481-3.9017 77.0557-3.9017L46.515-3.9017C44.0507-3.9017 42.2048-2.05582 42.2048 0.289141C42.2048 2.68434 44.0808 4.60503 46.515 4.60503ZM38.8 39.3593L105.53 39.3593C119.731 39.3593 128.276 30.7694 128.276 16.3497L128.276-78.5837C128.276-92.8525 119.846-101.599 105.862-101.599L104.596-101.599C105.251-100.166 105.563-98.4741 105.563-96.6841L105.563-90.4735C105.563-88.4477 105.221-86.5748 104.511-84.9607L105.403-84.9607C109.391-84.9607 111.644-82.3957 111.644-78.4228L111.644 16.1888C111.644 20.307 109.21 22.7569 104.951 22.7569L39.4096 22.7569C35.1205 22.7569 32.6919 20.307 32.6919 16.1888L32.6919-78.4228C32.6919-82.3957 34.9394-84.9607 38.9569-84.9607L39.8548-84.9607C39.1395-86.5748 38.7969-88.4477 38.7969-90.4735L38.7969-96.6841C38.7969-98.4741 39.1093-100.166 39.7642-101.599L38.4981-101.599C24.4839-101.599 16.084-92.8525 16.084-78.5837L16.084 16.3497C16.084 30.7694 24.6046 39.3593 38.8 39.3593ZM52.8815-83.0917L91.4485-83.0917C95.5558-83.0917 98.0349-85.6846 98.0349-90.0742L98.0349-96.6898C98.0349-101.085 95.5558-103.672 91.4485-103.672L87.1625-103.672C86.6244-111.455 80.1818-117.679 72.1801-117.679C64.1841-117.679 57.7358-111.455 57.1675-103.672L52.8815-103.672C48.7799-103.672 46.3253-101.085 46.3253-96.6898L46.3253-90.0742C46.3253-85.6846 48.7799-83.0917 52.8815-83.0917ZM72.1801-97.3453C69.0036-97.3453 66.4158-99.9835 66.4158-103.11C66.4158-106.247 69.0036-108.805 72.1801-108.805C75.3566-108.805 77.9143-106.247 77.9143-103.11C77.9143-99.9835 75.3566-97.3453 72.1801-97.3453ZM58.6115-36.1058C59.5461-36.1058 60.2562-36.855 60.4504-37.8342C61.2226-43.2608 61.9621-46.2403 63.8825-48.1305C65.7728-50.051 68.7769-50.7849 74.1733-51.557C75.1826-51.7568 75.9072-52.4469 75.9072-53.396C75.9072-54.3361 75.1826-55.0407 74.1733-55.2707C68.7769-56.0428 65.7728-56.7767 63.8825-58.667C61.9621-60.5573 61.2226-63.567 60.4504-68.9935C60.2562-69.9727 59.5461-70.6917 58.6115-70.6917C57.6323-70.6917 56.9724-69.9727 56.7725-68.9935C56.0004-63.567 55.2665-60.5573 53.3461-58.667C51.4558-56.7767 48.4461-56.0428 43.0497-55.2707C42.0403-55.0407 41.3157-54.3361 41.3157-53.396C41.3157-52.4469 42.0403-51.7568 43.0497-51.557C48.4461-50.7849 51.4558-50.051 53.3461-48.1305C55.2665-46.2403 56.0004-43.2608 56.7725-37.8342C56.9724-36.855 57.6323-36.1058 58.6115-36.1058Z"/>
  </g>
  <g id="Bold-L" transform="matrix(1 0 0 1 2269.07 1556)">
   <path d="M44.3325-17.7232L97.5495-17.7232C99.7939-17.7232 101.526-19.4708 101.526-21.7284C101.526-23.9188 99.7939-25.6372 97.5495-25.6372L44.3325-25.6372C42.0589-25.6372 40.3273-23.9188 40.3273-21.7284C40.3273-19.4708 42.0589-17.7232 44.3325-17.7232ZM44.3325 5.80478L75.4938 5.80478C77.7135 5.80478 79.4698 4.00596 79.4698 1.78633C79.4698-0.390867 77.7514-2.12249 75.4938-2.12249L44.3325-2.12249C42.0589-2.12249 40.3273-0.390867 40.3273 1.78633C40.3273 4.00596 42.0969 5.80478 44.3325 5.80478ZM37.4477 38.5448L104.338 38.5448C117.956 38.5448 125.74 30.7323 125.74 16.9256L125.74-78.5716C125.74-92.1883 118.095-100.204 104.756-100.204L103.034-100.204C103.481-99.11 103.685-97.8187 103.685-96.4909L103.685-90.768C103.685-89.1496 103.443-87.6304 102.933-86.3084L104.382-86.3084C109.236-86.3084 111.857-83.274 111.857-78.4108L111.857 16.7648C111.857 21.8047 109.008 24.7004 103.812 24.7004L38.0117 24.7004C32.7773 24.7004 29.9417 21.8047 29.9417 16.7648L29.9417-78.4108C29.9417-83.274 32.5494-86.3084 37.4419-86.3084L38.9034-86.3084C38.3806-87.6304 38.1382-89.1496 38.1382-90.768L38.1382-96.4909C38.1382-97.8187 38.3426-99.11 38.7895-100.204L37.0678-100.204C23.6906-100.204 16.084-92.1883 16.084-78.5716L16.084 16.9256C16.084 30.7323 23.8426 38.5448 37.4477 38.5448ZM51.5969-83.395L90.1888-83.395C94.0664-83.395 96.4079-85.8197 96.4079-89.9264L96.4079-96.5042C96.4079-100.624 94.0664-103.036 90.1888-103.036L85.2048-103.036C84.7432-110.504 78.5687-116.49 70.9118-116.49C63.2682-116.49 57.0804-110.504 56.5809-103.036L51.5969-103.036C47.7325-103.036 45.4158-100.624 45.4158-96.5042L45.4158-89.9264C45.4158-85.8197 47.7325-83.395 51.5969-83.395ZM70.9118-96.8393C67.7665-96.8393 65.2019-99.4464 65.2019-102.549C65.2019-105.679 67.7665-108.205 70.9118-108.205C74.0571-108.205 76.5838-105.679 76.5838-102.549C76.5838-99.4464 74.0571-96.8393 70.9118-96.8393ZM57.3458-35.0456C58.1962-35.0456 58.845-35.7104 59.0086-36.59C59.8656-42.4541 60.6362-45.6103 62.672-47.6081C64.6698-49.6439 67.8508-50.4013 73.6769-51.2583C74.5945-51.4351 75.2345-52.0795 75.2345-52.9211C75.2345-53.7848 74.5945-54.4204 73.6769-54.6352C67.8508-55.4922 64.6698-56.2495 62.672-58.2473C60.6362-60.2451 59.8656-63.4393 59.0086-69.3034C58.845-70.183 58.1962-70.8099 57.3458-70.8099C56.4661-70.8099 55.8597-70.183 55.6829-69.3034C54.8259-63.4393 54.0686-60.2451 52.0328-58.2473C50.035-56.2495 46.8408-55.4922 41.0147-54.6352C40.0971-54.4204 39.457-53.7848 39.457-52.9211C39.457-52.0795 40.0971-51.4351 41.0147-51.2583C46.8408-50.4013 50.035-49.6439 52.0328-47.6081C54.0686-45.6103 54.8259-42.4541 55.6829-36.59C55.8597-35.7104 56.4661-35.0456 57.3458-35.0456Z"/>
  </g>
  <g id="Semibold-L" transform="matrix(1 0 0 1 1973.23 1556)">
   <path d="M42.8279-17.0224L97.2841-17.0224C99.4076-17.0224 101.06-18.6753 101.06-20.8173C101.06-22.8973 99.4076-24.5317 97.2841-24.5317L42.8279-24.5317C40.6859-24.5317 39.033-22.8973 39.033-20.8173C39.033-18.6753 40.6859-17.0224 42.8279-17.0224ZM42.8279 6.63188L74.4171 6.63188C76.5157 6.63188 78.1935 4.91708 78.1935 2.81848C78.1935 0.756941 76.5591-0.895916 74.4171-0.895916L42.8279-0.895916C40.6859-0.895916 39.033 0.756941 39.033 2.81848C39.033 4.91708 40.7292 6.63188 42.8279 6.63188ZM36.5154 37.9833L103.516 37.9833C116.733 37.9833 123.991 30.7066 123.991 17.3226L123.991-78.5633C123.991-91.7305 116.888-99.2425 103.993-99.2425L101.957-99.2425C102.261-98.382 102.391-97.3668 102.391-96.3577L102.391-90.971C102.391-89.6335 102.217-88.3581 101.846-87.2374L103.677-87.2374C109.13-87.2374 112.004-83.8796 112.004-78.4024L112.004 17.1618C112.004 22.8373 108.87 26.0402 103.027 26.0402L37.0479 26.0402C31.1619 26.0402 28.0457 22.8373 28.0457 17.1618L28.0457-78.4024C28.0457-83.8796 30.9017-87.2374 36.3974-87.2374L38.2476-87.2374C37.8574-88.3581 37.6841-89.6335 37.6841-90.971L37.6841-96.3577C37.6841-97.3668 37.8141-98.382 38.1175-99.2425L36.0818-99.2425C23.1438-99.2425 16.084-91.7305 16.084-78.5633L16.084 17.3226C16.084 30.7066 23.3172 37.9833 36.5154 37.9833ZM50.7113-83.6042L89.3203-83.6042C93.0397-83.6042 95.2862-85.9128 95.2862-89.8244L95.2862-96.3762C95.2862-100.306 93.0397-102.596 89.3203-102.596L83.8551-102.596C83.4464-109.848 77.4566-115.671 70.0375-115.671C62.6368-115.671 56.6286-109.848 56.1764-102.596L50.7113-102.596C47.0104-102.596 44.7887-100.306 44.7887-96.3762L44.7887-89.8244C44.7887-85.9128 47.0104-83.6042 50.7113-83.6042ZM70.0375-96.4904C66.9137-96.4904 64.3651-99.0761 64.3651-102.163C64.3651-105.286 66.9137-107.792 70.0375-107.792C73.1612-107.792 75.6665-105.286 75.6665-102.163C75.6665-99.0761 73.1612-96.4904 70.0375-96.4904ZM56.4732-34.3147C57.2656-34.3147 57.8722-34.9213 58.0146-35.7323C58.9302-41.898 59.7221-45.176 61.8374-47.248C63.9094-49.3633 67.2123-50.1368 73.3346-51.0523C74.189-51.2132 74.7708-51.8261 74.7708-52.5937C74.7708-53.4046 74.189-53.9927 73.3346-54.197C67.2123-55.1126 63.9094-55.886 61.8374-57.958C59.7221-60.03 58.9302-63.3513 58.0146-69.517C57.8722-70.328 57.2656-70.8913 56.4732-70.8913C55.6622-70.8913 55.0927-70.328 54.9318-69.517C54.0162-63.3513 53.2428-60.03 51.1274-57.958C49.0554-55.886 45.7341-55.1126 39.6117-54.197C38.7574-53.9927 38.1756-53.4046 38.1756-52.5937C38.1756-51.8261 38.7574-51.2132 39.6117-51.0523C45.7341-50.1368 49.0554-49.3633 51.1274-47.248C53.2428-45.176 54.0162-41.898 54.9318-35.7323C55.0927-34.9213 55.6622-34.3147 56.4732-34.3147Z"/>
  </g>
  <g id="Medium-L" transform="matrix(1 0 0 1 1677.18 1556)">
   <path d="M41.6871-16.491L97.0829-16.491C99.1147-16.491 100.708-18.0722 100.708-20.1264C100.708-22.1228 99.1147-23.6934 97.0829-23.6934L41.6871-23.6934C39.6447-23.6934 38.0516-22.1228 38.0516-20.1264C38.0516-18.0722 39.6447-16.491 41.6871-16.491ZM41.6871 7.25902L73.6007 7.25902C75.6075 7.25902 77.2256 5.60793 77.2256 3.60111C77.2256 1.62726 75.655 0.0341266 73.6007 0.0341266L41.6871 0.0341266C39.6447 0.0341266 38.0516 1.62726 38.0516 3.60111C38.0516 5.60793 39.6922 7.25902 41.6871 7.25902ZM35.8086 37.5576L102.893 37.5576C115.805 37.5576 122.665 30.6872 122.665 17.6237L122.665-78.557C122.665-91.3833 115.972-98.5134 103.415-98.5134L101.141-98.5134C101.336-97.83 101.409-97.0242 101.409-96.2568L101.409-91.1249C101.409-90.0004 101.288-88.9099 101.021-87.9419L103.143-87.9419C109.049-87.9419 112.116-84.3387 112.116-78.3961L112.116 17.4628C112.116 23.6202 108.764 27.056 102.432 27.056L36.3171 27.056C29.937 27.056 26.608 23.6202 26.608 17.4628L26.608-78.3961C26.608-84.3387 29.6524-87.9419 35.6055-87.9419L37.7503-87.9419C37.4608-88.9099 37.3397-90.0004 37.3397-91.1249L37.3397-96.2568C37.3397-97.0242 37.4133-97.83 37.6079-98.5134L35.3341-98.5134C22.7291-98.5134 16.084-91.3833 16.084-78.557L16.084 17.6237C16.084 30.6872 22.9189 37.5576 35.8086 37.5576ZM50.0397-83.7628L88.6618-83.7628C92.2611-83.7628 94.4357-85.9834 94.4357-89.7471L94.4357-96.2792C94.4357-100.065 92.2611-102.264 88.6618-102.264L82.8318-102.264C82.463-109.351 76.6134-115.049 69.3745-115.049C62.1581-115.049 56.286-109.351 55.8697-102.264L50.0397-102.264C46.4629-102.264 44.3133-100.065 44.3133-96.2792L44.3133-89.7471C44.3133-85.9834 46.4629-83.7628 50.0397-83.7628ZM69.3745-96.2259C66.267-96.2259 63.7305-98.7953 63.7305-101.87C63.7305-104.989 66.267-107.478 69.3745-107.478C72.4819-107.478 74.971-104.989 74.971-101.87C74.971-98.7953 72.4819-96.2259 69.3745-96.2259ZM55.8116-33.7604C56.56-33.7604 57.1345-34.323 57.2609-35.0819C58.2208-41.4763 59.029-44.8467 61.2046-46.9749C63.3328-49.1506 66.7282-49.9362 73.0751-50.8962C73.8815-51.045 74.4191-51.6341 74.4191-52.3455C74.4191-53.1164 73.8815-53.6685 73.0751-53.8648C66.7282-54.8247 63.3328-55.6104 61.2046-57.7386C59.029-59.8668 58.2208-63.2846 57.2609-69.679C57.1345-70.4379 56.56-70.9531 55.8116-70.9531C55.0526-70.9531 54.5111-70.4379 54.3622-69.679C53.4023-63.2846 52.6166-59.8668 50.4409-57.7386C48.3127-55.6104 44.8949-54.8247 38.548-53.8648C37.7416-53.6685 37.204-53.1164 37.204-52.3455C37.204-51.6341 37.7416-51.045 38.548-50.8962C44.8949-49.9362 48.3127-49.1506 50.4409-46.9749C52.6166-44.8467 53.4023-41.4763 54.3622-35.0819C54.5111-34.323 55.0526-33.7604 55.8116-33.7604Z"/>
  </g>
  <g id="Regular-L" transform="matrix(1 0 0 1 1381.33 1556)">
   <path d="M40.199-15.7979L96.8205-15.7979C98.7327-15.7979 100.248-17.2855 100.248-19.2253C100.248-21.1125 98.7327-22.6 96.8205-22.6L40.199-22.6C38.2867-22.6 36.7715-21.1125 36.7715-19.2253C36.7715-17.2855 38.2867-15.7979 40.199-15.7979ZM40.199 8.07703L72.5358 8.07703C74.4229 8.07703 75.9633 6.50904 75.9633 4.62192C75.9633 2.76245 74.4757 1.24723 72.5358 1.24723L40.199 1.24723C38.2867 1.24723 36.7715 2.76245 36.7715 4.62192C36.7715 6.50904 38.3395 8.07703 40.199 8.07703ZM34.8866 37.0023L102.08 37.0023C114.595 37.0023 120.935 30.6619 120.935 18.0163L120.935-78.5488C120.935-90.9305 114.778-97.5624 102.661-97.5624L100.076-97.5624C100.129-97.1101 100.129-96.5773 100.129-96.125L100.129-91.3257C100.129-90.479 100.076-89.6297 99.9455-88.8608L102.447-88.8608C108.944-88.8608 112.262-84.9376 112.262-78.3879L112.262 17.8555C112.262 24.6414 108.627 28.3811 101.655 28.3811L35.364 28.3811C28.3394 28.3811 24.7328 24.6414 24.7328 17.8555L24.7328-78.3879C24.7328-84.9376 28.0228-88.8608 34.5725-88.8608L37.1016-88.8608C36.9433-89.6297 36.8906-90.479 36.8906-91.3257L36.8906-96.125C36.8906-96.5773 36.8906-97.1101 36.9433-97.5624L34.3589-97.5624C22.1882-97.5624 16.084-90.9305 16.084-78.5488L16.084 18.0163C16.084 30.6619 22.3993 37.0023 34.8866 37.0023ZM49.1638-83.9697L87.8029-83.9697C91.2456-83.9697 93.3263-86.0755 93.3263-89.6463L93.3263-96.1527C93.3263-99.7512 91.2456-101.829 87.8029-101.829L81.497-101.829C81.1804-108.703 75.5135-114.239 68.5097-114.239C61.5336-114.239 55.8391-108.703 55.4697-101.829L49.1638-101.829C45.7487-101.829 43.6931-99.7512 43.6931-96.1527L43.6931-89.6463C43.6931-86.0755 45.7487-83.9697 49.1638-83.9697ZM68.5097-95.8808C65.4236-95.8808 62.9029-98.4292 62.9029-101.488C62.9029-104.601 65.4236-107.069 68.5097-107.069C71.5959-107.069 74.0638-104.601 74.0638-101.488C74.0638-98.4292 71.5959-95.8808 68.5097-95.8808ZM54.9486-33.0376C55.6396-33.0376 56.1723-33.5426 56.2779-34.2337C57.2957-40.9264 58.125-44.4172 60.3793-46.6187C62.5808-48.873 66.0967-49.6747 72.7367-50.6925C73.4805-50.8257 73.9604-51.3835 73.9604-52.0218C73.9604-52.7404 73.4805-53.2455 72.7367-53.4315C66.0967-54.4493 62.5808-55.2509 60.3793-57.4525C58.125-59.654 57.2957-63.1976 56.2779-69.8903C56.1723-70.5813 55.6396-71.0336 54.9486-71.0336C54.2576-71.0336 53.7525-70.5813 53.6193-69.8903C52.6015-63.1976 51.7998-59.654 49.5455-57.4525C47.344-55.2509 43.8004-54.4493 37.1605-53.4315C36.4167-53.2455 35.9367-52.7404 35.9367-52.0218C35.9367-51.3835 36.4167-50.8257 37.1605-50.6925C43.8004-49.6747 47.344-48.873 49.5455-46.6187C51.7998-44.4172 52.6015-40.9264 53.6193-34.2337C53.7525-33.5426 54.2576-33.0376 54.9486-33.0376Z"/>
  </g>
  <g id="Light-L" transform="matrix(1 0 0 1 1085.41 1556)">
   <path d="M38.7485-15.5689L96.706-15.5689C98.2174-15.5689 99.4464-16.7511 99.4464-18.3092C99.4464-19.8337 98.2174-21.016 96.706-21.016L38.7485-21.016C37.2371-21.016 36.0081-19.8337 36.0081-18.3092C36.0081-16.7511 37.2371-15.5689 38.7485-15.5689ZM38.7485 8.68776L71.8678 8.68776C73.3923 8.68776 74.6082 7.42513 74.6082 5.90063C74.6082 4.42287 73.426 3.19392 71.8678 3.19392L38.7485 3.19392C37.2371 3.19392 36.0081 4.42287 36.0081 5.90063C36.0081 7.42513 37.2707 8.68776 38.7485 8.68776ZM33.9323 36.4297L101.488 36.4297C113.316 36.4297 119.37 30.3756 119.37 18.4935L119.37-79.4458C119.37-91.1595 113.404-97.4288 101.859-97.4288L97.824-97.4288C97.8577-97.0528 97.8577-96.5964 97.8577-96.2205L97.8577-92.6044C97.8577-92.0058 97.824-91.3473 97.7698-90.7693L101.664-90.7693C108.982-90.7693 112.758-86.6362 112.758-79.2849L112.758 18.3326C112.758 25.8056 108.78 29.8507 101.159 29.8507L34.2952 29.8507C26.6408 29.8507 22.7098 25.8056 22.7098 18.3326L22.7098-79.2849C22.7098-86.6362 26.4387-90.7693 33.79-90.7693L37.7314-90.7693C37.6304-91.3473 37.5967-92.0058 37.5967-92.6044L37.5967-96.2205C37.5967-96.5964 37.5967-97.0528 37.6304-97.4288L33.5955-97.4288C22.0165-97.4288 16.084-91.1595 16.084-79.4458L16.084 18.4935C16.084 30.3756 22.1512 36.4297 33.9323 36.4297ZM48.5722-85.0003L86.8486-85.0003C89.9478-85.0003 91.7995-86.8389 91.7995-89.9326L91.7995-96.2672C91.7995-99.4076 89.9478-101.2 86.8486-101.2L79.7984-101.2C79.5963-107.71 74.2921-112.96 67.7272-112.96C61.2091-112.96 55.8582-107.71 55.6224-101.2L48.5722-101.2C45.5197-101.2 43.655-99.4076 43.655-96.2672L43.655-89.9326C43.655-86.8389 45.5197-85.0003 48.5722-85.0003ZM67.7272-95.3083C64.5647-95.3083 62.025-97.8948 62.025-101.011C62.025-104.22 64.5647-106.726 67.7272-106.726C70.8897-106.726 73.3958-104.22 73.3958-101.011C73.3958-97.8948 70.8897-95.3083 67.7272-95.3083ZM53.6317-32.2741C54.1891-32.2741 54.6455-32.6838 54.7129-33.2412C55.7116-40.3347 56.5027-43.9591 58.8143-46.237C61.0922-48.5486 64.7035-49.293 71.7633-50.2917C72.3544-50.4058 72.7771-50.8491 72.7771-51.3729C72.7771-51.977 72.3544-52.3867 71.7633-52.5345C64.7035-53.5332 61.0922-54.2776 58.8143-56.5554C56.5027-58.8333 55.7116-62.4914 54.7129-69.5849C54.6455-70.1423 54.1891-70.5183 53.6317-70.5183C53.0743-70.5183 52.6646-70.1423 52.5505-69.5849C51.5518-62.4914 50.8074-58.8333 48.4958-56.5554C46.218-54.2776 42.5599-53.5332 35.5001-52.5345C34.9089-52.3867 34.4862-51.977 34.4862-51.3729C34.4862-50.8491 34.9089-50.4058 35.5001-50.2917C42.5599-49.293 46.218-48.5486 48.4958-46.237C50.8074-43.9591 51.5518-40.3347 52.5505-33.2412C52.6646-32.6838 53.0743-32.2741 53.6317-32.2741Z"/>
  </g>
  <g id="Thin-L" transform="matrix(1 0 0 1 789.73 1556)">
   <path d="M36.8301-15.266L96.5545-15.266C97.5359-15.266 98.3862-16.0443 98.3862-17.0976C98.3862-18.1425 97.5359-18.9209 96.5545-18.9209L36.8301-18.9209C35.8488-18.9209 34.9984-18.1425 34.9984-17.0976C34.9984-16.0443 35.8488-15.266 36.8301-15.266ZM36.8301 9.4955L70.9844 9.4955C72.0293 9.4955 72.8161 8.63674 72.8161 7.59183C72.8161 6.61891 72.0377 5.76859 70.9844 5.76859L36.8301 5.76859C35.8488 5.76859 34.9984 6.61891 34.9984 7.59183C34.9984 8.63674 35.8572 9.4955 36.8301 9.4955ZM32.6702 35.6725L100.706 35.6725C111.625 35.6725 117.301 29.997 117.301 19.1245L117.301-80.6321C117.301-91.4624 111.587-97.2521 100.799-97.2521L94.8455-97.2521C94.854-96.9771 94.854-96.6217 94.854-96.3467L94.854-94.2956C94.854-94.0251 94.8455-93.6191 94.8922-93.2935L100.63-93.2935C109.033-93.2935 113.414-88.8828 113.414-80.4713L113.414 18.9637C113.414 27.3453 108.982 31.7943 100.503 31.7943L32.8817 31.7943C24.3943 31.7943 20.0342 27.3453 20.0342 18.9637L20.0342-80.4713C20.0342-88.8828 24.3437-93.2935 32.7551-93.2935L38.5644-93.2935C38.5391-93.6191 38.5307-94.0251 38.5307-94.2956L38.5307-96.3467C38.5307-96.6217 38.5307-96.9771 38.5391-97.2521L32.5858-97.2521C21.7893-97.2521 16.084-91.4624 16.084-80.6321L16.084 19.1245C16.084 29.997 21.823 35.6725 32.6702 35.6725ZM47.7897-86.3633L85.5865-86.3633C88.2314-86.3633 89.7802-87.8486 89.7802-90.3112L89.7802-96.4186C89.7802-98.9533 88.2314-100.367 85.5865-100.367L77.5518-100.367C77.5012-106.397 72.6766-111.269 66.6923-111.269C60.78-111.269 55.8834-106.397 55.8244-100.367L47.7897-100.367C45.2168-100.367 43.6045-98.9533 43.6045-96.4186L43.6045-90.3112C43.6045-87.8486 45.2168-86.3633 47.7897-86.3633ZM66.6923-94.551C63.4288-94.551 60.8638-97.188 60.8638-100.379C60.8638-103.715 63.4288-106.272 66.6923-106.272C69.9558-106.272 72.5124-103.715 72.5124-100.379C72.5124-97.188 69.9558-94.551 66.6923-94.551ZM51.89-31.2645C52.2707-31.2645 52.6262-31.5479 52.643-31.9286C53.6165-39.5522 54.3572-43.3533 56.7445-45.7322C59.1233-48.1195 62.8609-48.7881 70.476-49.7616C70.8652-49.8505 71.2122-50.1423 71.2122-50.5146C71.2122-50.9674 70.8652-51.2508 70.476-51.3481C62.8609-52.3216 59.1233-52.9902 56.7445-55.3691C54.3572-57.7479 53.6165-61.5575 52.643-69.181C52.6262-69.5618 52.2707-69.8368 51.89-69.8368C51.5093-69.8368 51.2258-69.5618 51.137-69.181C50.1635-61.5575 49.4948-57.7479 47.1075-55.3691C44.7287-52.9902 40.9192-52.3216 33.304-51.3481C32.9148-51.2508 32.5679-50.9674 32.5679-50.5146C32.5679-50.1423 32.9148-49.8505 33.304-49.7616C40.9192-48.7881 44.7287-48.1195 47.1075-45.7322C49.4948-43.3533 50.1635-39.5522 51.137-31.9286C51.2258-31.5479 51.5093-31.2645 51.89-31.2645Z"/>
  </g>
  <g id="Ultralight-L" transform="matrix(1 0 0 1 493.549 1556)">
   <path d="M35.8475-15.1108L96.477-15.1108C97.1868-15.1108 97.8432-15.6823 97.8432-16.4771C97.8432-17.2763 97.1868-17.8478 96.477-17.8478L35.8475-17.8478C35.1377-17.8478 34.4813-17.2763 34.4813-16.4771C34.4813-15.6823 35.1377-15.1108 35.8475-15.1108ZM35.8475 9.90922L70.5319 9.90922C71.3311 9.90922 71.8981 9.25732 71.8981 8.45806C71.8981 7.74371 71.3266 7.08732 70.5319 7.08732L35.8475 7.08732C35.1377 7.08732 34.4813 7.74371 34.4813 8.45806C34.4813 9.25732 35.1332 9.90922 35.8475 9.90922ZM32.0238 35.2846L100.305 35.2846C110.759 35.2846 116.24 29.803 116.24 19.4477L116.24-81.2398C116.24-91.6176 110.656-97.1616 100.256-97.1616L93.3199-97.1616C93.3154-96.9383 93.3154-96.6346 93.3154-96.4113L93.3154-95.1619C93.3154-95.0594 93.3199-94.7827 93.4183-94.5863L100.099-94.5863C109.058-94.5863 113.75-90.0334 113.75-81.0789L113.75 19.2869C113.75 28.134 109.085 32.7898 100.167 32.7898L32.1576 32.7898C23.2436 32.7898 18.6637 28.134 18.6637 19.2869L18.6637-81.0789C18.6637-90.0334 23.2706-94.5863 32.225-94.5863L38.9911-94.5863C39.0046-94.7827 39.009-95.0594 39.009-95.1619L39.009-96.4113C39.009-96.6346 39.009-96.9383 39.0046-97.1616L32.0687-97.1616C21.6729-97.1616 16.084-91.6176 16.084-81.2398L16.084 19.4477C16.084 29.803 21.655 35.2846 32.0238 35.2846ZM47.3889-87.0615L84.9401-87.0615C87.3522-87.0615 88.7459-88.3657 88.7459-90.5052L88.7459-96.4962C88.7459-98.7206 87.3522-99.9399 84.9401-99.9399L76.4012-99.9399C76.4281-105.725 71.8491-110.403 66.1622-110.403C60.5602-110.403 55.8963-105.725 55.9278-99.9399L47.3889-99.9399C45.0617-99.9399 43.5786-98.7206 43.5786-96.4962L43.5786-90.5052C43.5786-88.3657 45.0617-87.0615 47.3889-87.0615ZM66.1622-94.1631C62.8471-94.1631 60.2691-96.826 60.2691-100.056C60.2691-103.456 62.8471-106.039 66.1622-106.039C69.4774-106.039 72.0598-103.456 72.0598-100.056C72.0598-96.826 69.4774-94.1631 66.1622-94.1631ZM50.9979-30.7473C51.2882-30.7473 51.5919-30.9661 51.5829-31.2564C52.5434-39.1514 53.2582-43.043 55.6843-45.4736C58.1149-47.8997 61.9171-48.5296 69.8166-49.4901C70.1024-49.566 70.4106-49.7803 70.4106-50.0751C70.4106-50.4502 70.1024-50.669 69.8166-50.7404C61.9171-51.701 58.1149-52.3309 55.6843-54.7614C53.2582-57.192 52.5434-61.0791 51.5829-68.9742C51.5919-69.2644 51.2882-69.4877 50.9979-69.4877C50.7077-69.4877 50.4889-69.2644 50.413-68.9742C49.4524-61.0791 48.8225-57.192 46.3965-54.7614C43.9659-52.3309 40.0788-51.701 32.1792-50.7404C31.8935-50.669 31.5853-50.4502 31.5853-50.0751C31.5853-49.7803 31.8935-49.566 32.1792-49.4901C40.0788-48.5296 43.9659-47.8997 46.3965-45.4736C48.8225-43.043 49.4524-39.1514 50.413-31.2564C50.4889-30.9661 50.7077-30.7473 50.9979-30.7473Z"/>
  </g>
  <g id="Black-M" transform="matrix(1 0 0 1 2875.89 1126)">
   <path d="M38.7318-23.8613L76.3973-23.8613C78.3918-23.8613 79.8913-25.4182 79.8913-27.4124C79.8913-29.3441 78.3918-30.8439 76.3973-30.8439L38.7318-30.8439C36.6802-30.8439 35.1807-29.3441 35.1807-27.4124C35.1807-25.4182 36.6802-23.8613 38.7318-23.8613ZM38.7318-5.9128L61.7525-5.9128C63.7412-5.9128 65.2465-7.47495 65.2465-9.46366C65.2465-11.3956 63.7467-12.8951 61.7525-12.8951L38.7318-12.8951C36.6802-12.8951 35.1807-11.3956 35.1807-9.46366C35.1807-7.47495 36.6857-5.9128 38.7318-5.9128ZM31.7106 23.5525L83.2987 23.5525C94.9181 23.5525 102.554 15.8595 102.554 4.05214L102.554-69.1407C102.554-80.9206 94.9403-88.6408 83.3592-88.6408L82.5501-88.6408C83.3549-87.0616 83.7546-85.1917 83.7546-83.1557L83.7546-78.0344C83.7546-75.9542 83.3494-74.0514 82.5333-72.4392L82.8865-72.4392C84.988-72.4392 86.3521-71.0661 86.3521-69.0161L86.3521 3.92753C86.3521 6.00523 84.9551 7.35617 82.8041 7.35617L32.2108 7.35617C30.0543 7.35617 28.657 6.00523 28.657 3.92753L28.657-69.0161C28.657-71.0661 30.0213-72.4392 32.1284-72.4392L32.4813-72.4392C31.6655-74.0514 31.2603-75.9542 31.2603-78.0344L31.2603-83.1557C31.2603-85.1917 31.66-87.0616 32.4648-88.6408L31.6557-88.6408C20.0691-88.6408 12.4609-80.9206 12.4609-69.1407L12.4609 4.05214C12.4609 15.8595 20.091 23.5525 31.7106 23.5525ZM42.6448-72.2179L72.3645-72.2179C75.7651-72.2179 77.809-74.3817 77.809-78.0335L77.809-83.1554C77.809-86.807 75.7651-88.971 72.3645-88.971L69.8103-88.971C69.3206-95.3365 64.061-100.408 57.5074-100.408C50.9536-100.408 45.6943-95.3365 45.1991-88.971L42.6448-88.971C39.244-88.971 37.2059-86.807 37.2059-83.1554L37.2059-78.0335C37.2059-74.3817 39.244-72.2179 42.6448-72.2179ZM57.5074-83.8977C54.9749-83.8977 52.9296-85.9998 52.9296-88.4755C52.9296-90.9507 54.9749-92.9905 57.5074-92.9905C60.04-92.9905 62.0798-90.9507 62.0798-88.4755C62.0798-85.9998 60.04-83.8977 57.5074-83.8977ZM46.8096-37.1974C47.6111-37.1974 48.2249-37.8686 48.4071-38.7272C48.8748-42.4287 49.3894-44.5244 50.7282-45.8577C52.0615-47.1965 54.163-47.7114 57.859-48.1791C58.7231-48.3611 59.3885-48.9235 59.3885-49.7766C59.3885-50.5779 58.7231-51.1919 57.859-51.3794C54.163-51.8471 52.0615-52.362 50.7282-53.6953C49.3894-55.0286 48.8748-57.1298 48.4071-60.8313C48.2249-61.6899 47.6111-62.3556 46.8096-62.3556C45.9509-62.3556 45.394-61.6899 45.212-60.8313C44.7443-57.1298 44.2294-55.0286 42.8906-53.6953C41.5573-52.362 39.4561-51.8471 35.7601-51.3794C34.896-51.1919 34.2306-50.5779 34.2306-49.7766C34.2306-48.9235 34.896-48.3611 35.7601-48.1791C39.4561-47.7114 41.5573-47.1965 42.8906-45.8577C44.2294-44.5244 44.7443-42.4287 45.212-38.7272C45.394-37.8686 45.9509-37.1974 46.8096-37.1974Z"/>
  </g>
  <g id="Heavy-M" transform="matrix(1 0 0 1 2580.12 1126)">
   <path d="M37.1361-23.0221L76.0855-23.0221C78.0128-23.0221 79.474-24.5247 79.474-26.4543C79.474-28.3238 78.0128-29.7828 76.0855-29.7828L37.1361-29.7828C35.1652-29.7828 33.704-28.3238 33.704-26.4543C33.704-24.5247 35.1652-23.0221 37.1361-23.0221ZM37.1361-4.99555L60.5311-4.99555C62.4443-4.99555 63.9196-6.51679 63.9196-8.42997C63.9196-10.2973 62.4607-11.7585 60.5311-11.7585L37.1361-11.7585C35.1652-11.7585 33.704-10.2973 33.704-8.42997C33.704-6.51679 35.1816-4.99555 37.1361-4.99555ZM30.7339 22.9637L82.3841 22.9637C93.6418 22.9637 100.673 15.8885 100.673 4.45293L100.673-68.9375C100.673-80.291 93.7052-87.4506 82.5646-87.4506L81.6689-87.4506C82.2961-86.1511 82.6014-84.6148 82.6014-82.9664L82.6014-78.0171C82.6014-76.2396 82.2796-74.6049 81.622-73.207L82.1618-73.207C84.8449-73.207 86.4321-71.4688 86.4321-68.8129L86.4321 4.32832C86.4321 7.064 84.7465 8.73882 81.9157 8.73882L31.2187 8.73882C28.3715 8.73882 26.6881 7.064 26.6881 4.32832L26.6881-68.8129C26.6881-71.4688 28.273-73.207 30.9725-73.207L31.5146-73.207C30.8547-74.6049 30.5329-76.2396 30.5329-78.0171L30.5329-82.9664C30.5329-84.6148 30.8383-86.1511 31.4654-87.4506L30.5698-87.4506C19.4128-87.4506 12.4609-80.291 12.4609-68.9375L12.4609 4.45293C12.4609 15.8885 19.4784 22.9637 30.7339 22.9637ZM41.6493-72.2616L71.4686-72.2616C74.7424-72.2616 76.7151-74.3357 76.7151-77.8428L76.7151-82.9687C76.7151-86.478 74.7424-88.5498 71.4686-88.5498L68.4643-88.5498C68.0169-94.7184 62.9137-99.6439 56.5672-99.6439C50.223-99.6439 45.1175-94.7184 44.6536-88.5498L41.6493-88.5498C38.3778-88.5498 36.4193-86.478 36.4193-82.9687L36.4193-77.8428C36.4193-74.3357 38.3778-72.2616 41.6493-72.2616ZM56.5672-83.5784C54.0783-83.5784 52.0574-85.6453 52.0574-88.0882C52.0574-90.5357 54.0783-92.5403 56.5672-92.5403C59.056-92.5403 61.0606-90.5357 61.0606-88.0882C61.0606-85.6453 59.056-83.5784 56.5672-83.5784ZM45.9864-36.4349C46.743-36.4349 47.3196-37.0528 47.4833-37.8531C48.0293-41.8508 48.5792-44.0723 50.0065-45.4832C51.4174-46.9105 53.653-47.4582 57.6343-48.0041C58.451-48.1701 59.0548-48.7172 59.0548-49.5011C59.0548-50.26 58.451-50.8343 57.6343-51.0167C53.653-51.5627 51.4174-52.1103 50.0065-53.5212C48.5792-54.9321 48.0293-57.17 47.4833-61.1677C47.3196-61.968 46.743-62.5695 45.9864-62.5695C45.1861-62.5695 44.6554-61.968 44.4894-61.1677C43.9435-57.17 43.3958-54.9321 41.9685-53.5212C40.5576-52.1103 38.3197-51.5627 34.3384-51.0167C33.5217-50.8343 32.9179-50.26 32.9179-49.5011C32.9179-48.7172 33.5217-48.1701 34.3384-48.0041C38.3197-47.4582 40.5576-46.9105 41.9685-45.4832C43.3958-44.0723 43.9435-41.8508 44.4894-37.8531C44.6554-37.0528 45.1861-36.4349 45.9864-36.4349Z"/>
  </g>
  <g id="Bold-M" transform="matrix(1 0 0 1 2284.46 1126)">
   <path d="M35.3511-22.0834L75.7367-22.0834C77.5889-22.0834 79.0072-23.5251 79.0072-25.3824C79.0072-27.1826 77.5889-28.5958 75.7367-28.5958L35.3511-28.5958C33.4704-28.5958 32.0521-27.1826 32.0521-25.3824C32.0521-23.5251 33.4704-22.0834 35.3511-22.0834ZM35.3511-3.96947L59.1648-3.96947C60.9935-3.96947 62.4353-5.44494 62.4353-7.27363C62.4353-9.06864 61.0222-10.4869 59.1648-10.4869L35.3511-10.4869C33.4704-10.4869 32.0521-9.06864 32.0521-7.27363C32.0521-5.44494 33.499-3.96947 35.3511-3.96947ZM29.6412 22.3051L81.3608 22.3051C92.2142 22.3051 98.5698 15.921 98.5698 4.90127L98.5698-68.7101C98.5698-79.5867 92.3235-86.1191 81.6757-86.1191L80.6833-86.1191C81.1116-85.1326 81.3114-83.9695 81.3114-82.7546L81.3114-77.9977C81.3114-76.5589 81.083-75.2241 80.6026-74.0658L81.3512-74.0658C84.6848-74.0658 86.5215-71.9193 86.5215-68.5855L86.5215 4.77666C86.5215 8.24839 84.5131 10.2855 80.9218 10.2855L30.1089 10.2855C26.489 10.2855 24.4857 8.24839 24.4857 4.77666L24.4857-68.5855C24.4857-71.9193 26.3172-74.0658 29.6795-74.0658L30.4333-74.0658C29.9477-75.2241 29.7193-76.5589 29.7193-77.9977L29.7193-82.7546C29.7193-83.9695 29.9191-85.1326 30.3474-86.1191L29.355-86.1191C18.6786-86.1191 12.4609-79.5867 12.4609-68.7101L12.4609 4.90127C12.4609 15.921 18.7931 22.3051 29.6412 22.3051ZM40.5356-72.3106L70.4664-72.3106C73.5983-72.3106 75.4914-74.2843 75.4914-77.6294L75.4914-82.7597C75.4914-86.1099 73.5983-88.0786 70.4664-88.0786L66.9587-88.0786C66.5585-94.0271 61.6302-98.789 55.5154-98.789C49.4056-98.789 44.4722-94.0271 44.0434-88.0786L40.5356-88.0786C37.409-88.0786 35.5393-86.1099 35.5393-82.7597L35.5393-77.6294C35.5393-74.2843 37.409-72.3106 40.5356-72.3106ZM55.5154-83.2213C53.0754-83.2213 51.0817-85.2486 51.0817-87.655C51.0817-90.0715 53.0754-92.0366 55.5154-92.0366C57.9554-92.0366 59.9204-90.0715 59.9204-87.655C59.9204-85.2486 57.9554-83.2213 55.5154-83.2213ZM45.0655-35.5819C45.772-35.5819 46.307-36.1403 46.4499-36.8754C47.0834-41.2045 47.6729-43.5665 49.1992-45.0642C50.6969-46.5906 53.0824-47.1749 57.3829-47.8084C58.1466-47.9564 58.6815-48.4864 58.6815-49.1928C58.6815-49.9044 58.1466-50.4343 57.3829-50.6109C53.0824-51.2445 50.6969-51.8288 49.1992-53.3265C47.6729-54.8242 47.0834-57.2149 46.4499-61.544C46.307-62.2791 45.772-62.8088 45.0655-62.8088C44.3304-62.8088 43.8291-62.2791 43.6811-61.544C43.0475-57.2149 42.4632-54.8242 40.9369-53.3265C39.4392-51.8288 37.0485-51.2445 32.748-50.6109C31.9844-50.4343 31.4494-49.9044 31.4494-49.1928C31.4494-48.4864 31.9844-47.9564 32.748-47.8084C37.0485-47.1749 39.4392-46.5906 40.9369-45.0642C42.4632-43.5665 43.0475-41.2045 43.6811-36.8754C43.8291-36.1403 44.3304-35.5819 45.0655-35.5819Z"/>
  </g>
  <g id="Semibold-M" transform="matrix(1 0 0 1 1988.48 1126)">
   <path d="M34.1205-21.4363L75.4963-21.4363C77.2966-21.4363 78.6854-22.836 78.6854-24.6435C78.6854-26.3958 77.2966-27.7774 75.4963-27.7774L34.1205-27.7774C32.302-27.7774 30.9133-26.3958 30.9133-24.6435C30.9133-22.836 32.302-21.4363 34.1205-21.4363ZM34.1205-3.2621L58.2229-3.2621C59.9934-3.2621 61.412-4.70602 61.412-6.47646C61.412-8.22165 60.0304-9.61037 58.2229-9.61037L34.1205-9.61037C32.302-9.61037 30.9133-8.22165 30.9133-6.47646C30.9133-4.70602 32.339-3.2621 34.1205-3.2621ZM28.888 21.8511L80.6554 21.8511C91.2299 21.8511 97.1195 15.9434 97.1195 5.21035L97.1195-68.5534C97.1195-79.1012 91.371-85.2013 81.0629-85.2013L80.0038-85.2013C80.295-84.4304 80.4221-83.5247 80.4221-82.6086L80.4221-77.9843C80.4221-76.779 80.258-75.6509 79.8998-74.6578L80.7923-74.6578C84.5745-74.6578 86.5832-72.2299 86.5832-68.4288L86.5832 5.08574C86.5832 9.06491 84.3522 11.3518 80.2367 11.3518L29.3438 11.3518C25.1912 11.3518 22.9673 9.06491 22.9673 5.08574L22.9673-68.4288C22.9673-72.2299 24.9689-74.6578 28.7882-74.6578L29.6878-74.6578C29.3225-75.6509 29.1584-76.779 29.1584-77.9843L29.1584-82.6086C29.1584-83.5247 29.2855-84.4304 29.5767-85.2013L28.5176-85.2013C18.1724-85.2013 12.4609-79.1012 12.4609-68.5534L12.4609 5.21035C12.4609 15.9434 18.3206 21.8511 28.888 21.8511ZM39.7679-72.3443L69.7755-72.3443C72.8095-72.3443 74.6478-74.2489 74.6478-77.4823L74.6478-82.6157C74.6478-85.8562 72.8095-87.7537 69.7755-87.7537L65.9207-87.7537C65.5532-93.5504 60.7455-98.1997 54.7902-98.1997C48.8421-98.1997 44.0273-93.5504 43.6227-87.7537L39.7679-87.7537C36.741-87.7537 34.9326-85.8562 34.9326-82.6157L34.9326-77.4823C34.9326-74.2489 36.741-72.3443 39.7679-72.3443ZM54.7902-82.9751C52.3839-82.9751 50.409-84.9752 50.409-87.3563C50.409-89.7515 52.3839-91.6894 54.7902-91.6894C57.1966-91.6894 59.1344-89.7515 59.1344-87.3563C59.1344-84.9752 57.1966-82.9751 54.7902-82.9751ZM44.4306-34.9938C45.1026-34.9938 45.6089-35.5112 45.7374-36.2013C46.4314-40.7588 47.048-43.2178 48.6426-44.7754C50.2002-46.37 52.6891-46.9796 57.2096-47.6735C57.9367-47.8091 58.4242-48.3272 58.4242-48.9803C58.4242-49.6593 57.9367-50.1585 57.2096-50.3312C52.6891-51.0251 50.2002-51.6347 48.6426-53.1923C47.048-54.7498 46.4314-57.2459 45.7374-61.8034C45.6089-62.4935 45.1026-62.9738 44.4306-62.9738C43.7406-62.9738 43.2595-62.4935 43.1238-61.8034C42.4299-57.2459 41.8203-54.7498 40.2257-53.1923C38.6682-51.6347 36.1722-51.0251 31.6516-50.3312C30.9245-50.1585 30.4371-49.6593 30.4371-48.9803C30.4371-48.3272 30.9245-47.8091 31.6516-47.6735C36.1722-46.9796 38.6682-46.37 40.2257-44.7754C41.8203-43.2178 42.4299-40.7588 43.1238-36.2013C43.2595-35.5112 43.7406-34.9938 44.4306-34.9938Z"/>
  </g>
  <g id="Medium-M" transform="matrix(1 0 0 1 1692.32 1126)">
   <path d="M33.1874-20.9456L75.3139-20.9456C77.0751-20.9456 78.4414-22.3135 78.4414-24.0832C78.4414-25.7992 77.0751-27.1569 75.3139-27.1569L33.1874-27.1569C31.4161-27.1569 30.0498-25.7992 30.0498-24.0832C30.0498-22.3135 31.4161-20.9456 33.1874-20.9456ZM33.1874-2.72574L57.5087-2.72574C59.235-2.72574 60.6362-4.14574 60.6362-5.87202C60.6362-7.57942 59.2785-8.94572 57.5087-8.94572L33.1874-8.94572C31.4161-8.94572 30.0498-7.57942 30.0498-5.87202C30.0498-4.14574 31.4595-2.72574 33.1874-2.72574ZM28.3168 21.5068L80.1206 21.5068C90.4837 21.5068 96.0199 15.9603 96.0199 5.44471L96.0199-68.4346C96.0199-78.7331 90.6488-84.5053 80.5983-84.5053L79.4885-84.5053C79.6759-83.898 79.7478-83.1873 79.7478-82.4978L79.7478-77.9741C79.7478-76.9458 79.6324-75.9746 79.3669-75.1068L80.3686-75.1068C84.4908-75.1068 86.6299-72.4654 86.6299-68.31L86.6299 5.3201C86.6299 9.68402 84.2302 12.1603 79.7172 12.1603L28.7637 12.1603C24.2072 12.1603 21.8161 9.68402 21.8161 5.3201L21.8161-68.31C21.8161-72.4654 23.9466-75.1068 28.1123-75.1068L29.1226-75.1068C28.8484-75.9746 28.733-76.9458 28.733-77.9741L28.733-82.4978C28.733-83.1873 28.805-83.898 28.9923-84.5053L27.8826-84.5053C17.7886-84.5053 12.4609-78.7331 12.4609-68.4346L12.4609 5.44471C12.4609 15.9603 17.9623 21.5068 28.3168 21.5068ZM39.1857-72.3699L69.2517-72.3699C72.2114-72.3699 74.0082-74.222 74.0082-77.3708L74.0082-82.5064C74.0082-85.6638 72.2114-87.5074 69.2517-87.5074L65.1336-87.5074C64.7909-93.189 60.0746-97.7528 54.2404-97.7528C48.4148-97.7528 43.69-93.189 43.3038-87.5074L39.1857-87.5074C36.2346-87.5074 34.4726-85.6638 34.4726-82.5064L34.4726-77.3708C34.4726-74.222 36.2346-72.3699 39.1857-72.3699ZM54.2404-82.7884C51.8596-82.7884 49.899-84.7679 49.899-87.1298C49.899-89.5089 51.8596-91.4261 54.2404-91.4261C56.6212-91.4261 58.5384-89.5089 58.5384-87.1298C58.5384-84.7679 56.6212-82.7884 54.2404-82.7884ZM43.9493-34.5479C44.595-34.5479 45.0796-35.0342 45.1972-35.6902C45.9369-40.421 46.5743-42.9534 48.2206-44.5564C49.8236-46.2027 52.3909-46.8315 57.0782-47.5712C57.7776-47.6974 58.2291-48.2066 58.2291-48.8191C58.2291-49.4734 57.7776-49.9494 57.0782-50.1191C52.3909-50.8588 49.8236-51.4875 48.2206-53.0905C46.5743-54.6934 45.9369-57.2693 45.1972-62.0001C45.0796-62.6561 44.595-63.0989 43.9493-63.0989C43.2933-63.0989 42.8276-62.6561 42.7013-62.0001C41.9616-57.2693 41.3329-54.6934 39.6865-53.0905C38.0836-51.4875 35.5077-50.8588 30.8203-50.1191C30.1209-49.9494 29.6695-49.4734 29.6695-48.8191C29.6695-48.2066 30.1209-47.6974 30.8203-47.5712C35.5077-46.8315 38.0836-46.2027 39.6865-44.5564C41.3329-42.9534 41.9616-40.421 42.7013-35.6902C42.8276-35.0342 43.2933-34.5479 43.9493-34.5479Z"/>
  </g>
  <g id="Regular-M" transform="matrix(1 0 0 1 1396.32 1126)">
   <path d="M31.9704-20.3055L75.0761-20.3055C76.786-20.3055 78.1231-21.632 78.1231-23.3524C78.1231-25.0211 76.786-26.3476 75.0761-26.3476L31.9704-26.3476C30.2605-26.3476 28.9235-25.0211 28.9235-23.3524C28.9235-21.632 30.2605-20.3055 31.9704-20.3055ZM31.9704-2.02614L56.5772-2.02614C58.2459-2.02614 59.6241-3.41494 59.6241-5.08361C59.6241-6.74173 58.2976-8.07877 56.5772-8.07877L31.9704-8.07877C30.2605-8.07877 28.9235-6.74173 28.9235-5.08361C28.9235-3.41494 30.3123-2.02614 31.9704-2.02614ZM27.5719 21.0578L79.4229 21.0578C89.5103 21.0578 94.5856 15.9825 94.5856 5.7504L94.5856-68.2796C94.5856-78.2529 89.7067-83.5975 79.9922-83.5975L78.8165-83.5975C78.8683-83.2036 78.8683-82.7474 78.8683-82.3534L78.8683-77.9609C78.8683-77.1635 78.8165-76.3968 78.6718-75.6923L79.8158-75.6923C84.3816-75.6923 86.6909-72.7725 86.6909-68.155L86.6909 5.62579C86.6909 10.4916 84.0711 13.2149 79.0395 13.2149L28.007 13.2149C22.9237 13.2149 20.3144 10.4916 20.3144 5.62579L20.3144-68.155C20.3144-72.7725 22.6131-75.6923 27.2307-75.6923L28.3853-75.6923C28.23-76.3968 28.1783-77.1635 28.1783-77.9609L28.1783-82.3534C28.1783-82.7474 28.1783-83.2036 28.23-83.5975L27.0543-83.5975C17.288-83.5975 12.4609-78.2529 12.4609-68.2796L12.4609 5.7504C12.4609 15.9825 17.4951 21.0578 27.5719 21.0578ZM38.4264-72.4033L68.5683-72.4033C71.4314-72.4033 73.1739-74.187 73.1739-77.2254L73.1739-82.364C73.1739-85.4129 71.4314-87.1861 68.5683-87.1861L64.1071-87.1861C63.7965-92.7177 59.1995-97.1699 53.5233-97.1699C47.8575-97.1699 43.25-92.7177 42.8877-87.1861L38.4264-87.1861C35.574-87.1861 33.8726-85.4129 33.8726-82.364L33.8726-77.2254C33.8726-74.187 35.574-72.4033 38.4264-72.4033ZM53.5233-82.5449C51.1758-82.5449 49.2338-84.4974 49.2338-86.8344C49.2338-89.1924 51.1758-91.0826 53.5233-91.0826C55.8707-91.0826 57.761-89.1924 57.761-86.8344C57.761-84.4974 55.8707-82.5449 53.5233-82.5449ZM43.3214-33.9663C43.9329-33.9663 44.3891-34.412 44.4926-35.0235C45.292-39.9802 45.9563-42.6086 47.6702-44.2707C49.3323-45.9846 52.0018-46.6383 56.9068-47.4377C57.5701-47.5518 57.9745-48.0492 57.9745-48.6089C57.9745-49.231 57.5701-49.6767 56.9068-49.8425C52.0018-50.6419 49.3323-51.2956 47.6702-52.9577C45.9563-54.6198 45.292-57.2999 44.4926-62.2567C44.3891-62.8682 43.9329-63.2621 43.3214-63.2621C42.7099-63.2621 42.2642-62.8682 42.1502-62.2567C41.3507-57.2999 40.697-54.6198 38.9832-52.9577C37.321-51.2956 34.6409-50.6419 29.736-49.8425C29.0727-49.6767 28.6682-49.231 28.6682-48.6089C28.6682-48.0492 29.0727-47.5518 29.736-47.4377C34.6409-46.6383 37.321-45.9846 38.9832-44.2707C40.697-42.6086 41.3507-39.9802 42.1502-35.0235C42.2642-34.412 42.7099-33.9663 43.3214-33.9663Z"/>
  </g>
  <g id="Light-M" transform="matrix(1 0 0 1 1100.31 1126)">
   <path d="M30.67-20.1002L74.9735-20.1002C76.324-20.1002 77.4044-21.1529 77.4044-22.5311C77.4044-23.8747 76.324-24.9274 74.9735-24.9274L30.67-24.9274C29.3194-24.9274 28.239-23.8747 28.239-22.5311C28.239-21.1529 29.3194-20.1002 30.67-20.1002ZM30.67-1.47859L55.9783-1.47859C57.3219-1.47859 58.4092-2.59361 58.4092-3.93717C58.4092-5.25308 57.3565-6.33346 55.9783-6.33346L30.67-6.33346C29.3194-6.33346 28.239-5.25308 28.239-3.93717C28.239-2.59361 29.3541-1.47859 30.67-1.47859ZM26.7163 20.5445L78.8925 20.5445C88.3638 20.5445 93.1825 15.7258 93.1825 6.17817L93.1825-69.0838C93.1825-78.4582 88.4747-83.4778 79.2735-83.4778L76.7974-83.4778C76.8321-83.1523 76.8321-82.7645 76.8321-82.439L76.8321-79.1074C76.8321-78.5324 76.7974-77.9367 76.7211-77.4034L79.1143-77.4034C84.4159-77.4034 87.1358-74.2954 87.1358-68.9592L87.1358 6.05356C87.1358 11.5353 84.208 14.5324 78.5947 14.5324L27.0488 14.5324C21.4008 14.5324 18.5006 11.5353 18.5006 6.05356L18.5006-68.9592C18.5006-74.2954 21.1929-77.4034 26.5291-77.4034L28.95-77.4034C28.846-77.9367 28.8114-78.5324 28.8114-79.1074L28.8114-82.439C28.8114-82.7645 28.8114-83.1523 28.846-83.4778L26.3699-83.4778C17.1341-83.4778 12.4609-78.4582 12.4609-69.0838L12.4609 6.17817C12.4609 15.7258 17.2726 20.5445 26.7163 20.5445ZM37.896-73.3272L67.7128-73.3272C70.2678-73.3272 71.805-74.8714 71.805-77.482L71.805-82.4667C71.805-85.1049 70.2678-86.6214 67.7128-86.6214L62.5842-86.6214C62.3763-91.8279 58.1044-96.0235 52.8217-96.0235C47.5667-96.0235 43.2671-91.8279 43.0246-86.6214L37.896-86.6214C35.3686-86.6214 33.8384-85.1049 33.8384-82.4667L33.8384-77.482C33.8384-74.8714 35.3686-73.3272 37.896-73.3272ZM52.8217-82.0316C50.4058-82.0316 48.4467-84.0183 48.4467-86.4066C48.4467-88.8502 50.4058-90.7746 52.8217-90.7746C55.2376-90.7746 57.1621-88.8502 57.1621-86.4066C57.1621-84.0183 55.2376-82.0316 52.8217-82.0316ZM42.1407-33.2819C42.6325-33.2819 43.0202-33.642 43.0895-34.1337C43.8718-39.4498 44.5019-42.1979 46.2671-43.9285C47.9976-45.6937 50.7527-46.2961 56.0342-47.0784C56.5605-47.1753 56.9137-47.5701 56.9137-48.0272C56.9137-48.5465 56.5605-48.9067 56.0342-49.0383C50.7527-49.8206 47.9976-50.4229 46.2671-52.1535C44.5019-53.8841 43.8718-56.6668 43.0895-61.9829C43.0202-62.4746 42.6325-62.8001 42.1407-62.8001C41.649-62.8001 41.2889-62.4746 41.1919-61.9829C40.4096-56.6668 39.8073-53.8841 38.0421-52.1535C36.3115-50.4229 33.5287-49.8206 28.2473-49.0383C27.721-48.9067 27.3678-48.5465 27.3678-48.0272C27.3678-47.5701 27.721-47.1753 28.2473-47.0784C33.5287-46.2961 36.3115-45.6937 38.0421-43.9285C39.8073-42.1979 40.4096-39.4498 41.1919-34.1337C41.2889-33.642 41.649-33.2819 42.1407-33.2819Z"/>
  </g>
  <g id="Thin-M" transform="matrix(1 0 0 1 804.528 1126)">
   <path d="M28.95-19.8286L74.8377-19.8286C75.713-19.8286 76.4539-20.5192 76.4539-21.4448C76.4539-22.3584 75.713-23.0491 74.8377-23.0491L28.95-23.0491C28.0747-23.0491 27.3338-22.3584 27.3338-21.4448C27.3338-20.5192 28.0747-19.8286 28.95-19.8286ZM28.95-0.754407L55.1862-0.754407C56.0998-0.754407 56.8025-1.50734 56.8025-2.42092C56.8025-3.28421 56.1118-4.02514 55.1862-4.02514L28.95-4.02514C28.0747-4.02514 27.3338-3.28421 27.3338-2.42092C27.3338-1.50734 28.0867-0.754407 28.95-0.754407ZM25.5848 19.8655L78.1909 19.8655C86.8476 19.8655 91.3268 15.3863 91.3268 6.74394L91.3268-70.1474C91.3268-78.7298 86.8453-83.3193 78.3231-83.3193L74.127-83.3193C74.139-83.0844 74.139-82.7871 74.139-82.5521L74.139-80.6236C74.139-80.3428 74.127-79.9735 74.1413-79.6665L78.1864-79.6665C84.4611-79.6665 87.7242-76.3095 87.7242-70.0228L87.7242 6.61933C87.7242 12.9158 84.3891 16.275 78.0063 16.275L25.7815 16.275C19.3867 16.275 16.1018 12.9158 16.1018 6.61933L16.1018-70.0228C16.1018-76.3095 19.3146-79.6665 25.6013-79.6665L29.6968-79.6665C29.6607-79.9735 29.6487-80.3428 29.6487-80.6236L29.6487-82.5521C29.6487-82.7871 29.6487-83.0844 29.6607-83.3193L25.4647-83.3193C16.9304-83.3193 12.4609-78.7298 12.4609-70.1474L12.4609 6.74394C12.4609 15.3863 16.9784 19.8655 25.5848 19.8655ZM37.1944-74.5493L66.5813-74.5493C68.7289-74.5493 69.9946-75.7766 69.9946-77.8215L69.9946-82.6024C69.9946-84.6976 68.7289-85.8746 66.5813-85.8746L60.5701-85.8746C60.498-90.6511 56.6561-94.5073 51.8939-94.5073C47.1819-94.5073 43.2897-90.6511 43.2057-85.8746L37.1944-85.8746C35.0971-85.8746 33.7932-84.6976 33.7932-82.6024L33.7932-77.8215C33.7932-75.7766 35.0971-74.5493 37.1944-74.5493ZM51.8939-81.3526C49.3874-81.3526 47.4057-83.3847 47.4057-85.8408C47.4057-88.3976 49.3874-90.3673 51.8939-90.3673C54.4003-90.3673 56.37-88.3976 56.37-85.8408C56.37-83.3847 54.4003-81.3526 51.8939-81.3526ZM40.5792-32.3767C40.9125-32.3767 41.2098-32.6237 41.2338-32.957C41.9935-38.7483 42.5783-41.6548 44.4114-43.4759C46.2325-45.309 49.1007-45.8435 54.88-46.6031C55.2253-46.6775 55.5106-46.9364 55.5106-47.2577C55.5106-47.6413 55.2253-47.8883 54.88-47.9746C49.1007-48.7343 46.2325-49.2688 44.4114-51.0899C42.5783-52.911 41.9935-55.8295 41.2338-61.6208C41.2098-61.9541 40.9125-62.1891 40.5792-62.1891C40.2459-62.1891 39.9989-61.9541 39.9246-61.6208C39.165-55.8295 38.6305-52.911 36.7974-51.0899C34.9763-49.2688 32.0577-48.7343 26.2785-47.9746C25.9331-47.8883 25.6479-47.6413 25.6479-47.2577C25.6479-46.9364 25.9331-46.6775 26.2785-46.6031C32.0577-45.8435 34.9763-45.309 36.7974-43.4759C38.6305-41.6548 39.165-38.7483 39.9246-32.957C39.9989-32.6237 40.2459-32.3767 40.5792-32.3767Z"/>
  </g>
  <g id="Ultralight-M" transform="matrix(1 0 0 1 508.292 1126)">
   <path d="M28.0691-19.6895L74.7682-19.6895C75.4-19.6895 75.9671-20.1947 75.9671-20.8885C75.9671-21.5818 75.4-22.087 74.7682-22.087L28.0691-22.087C27.4372-22.087 26.8702-21.5818 26.8702-20.8885C26.8702-20.1947 27.4372-19.6895 28.0691-19.6895ZM28.0691-0.383486L54.7805-0.383486C55.4739-0.383486 55.9795-0.950962 55.9795-1.64431C55.9795-2.27577 55.4743-2.84283 54.7805-2.84283L28.0691-2.84283C27.4372-2.84283 26.8702-2.27577 26.8702-1.64431C26.8702-0.950962 27.4376-0.383486 28.0691-0.383486ZM25.0052 19.5178L77.8316 19.5178C86.071 19.5178 90.3763 15.2125 90.3763 7.03372L90.3763-70.6922C90.3763-78.8689 86.0108-83.2382 77.8362-83.2382L72.7592-83.2382C72.7596-83.0496 72.7596-82.7987 72.7596-82.6101L72.7596-81.4002C72.7596-81.2701 72.7592-81.0167 72.8199-80.8256L77.7112-80.8256C84.4843-80.8256 88.0256-77.3412 88.0256-70.5676L88.0256 6.90911C88.0256 13.6229 84.4818 17.1675 77.7049 17.1675L25.1324 17.1675C18.355 17.1675 14.8731 13.6229 14.8731 6.90911L14.8731-70.5676C14.8731-77.3412 18.3525-80.8256 25.126-80.8256L30.0793-80.8256C30.078-81.0167 30.0776-81.2701 30.0776-81.4002L30.0776-82.6101C30.0776-82.7987 30.0776-83.0496 30.078-83.2382L25.001-83.2382C16.8261-83.2382 12.4609-78.8689 12.4609-70.6922L12.4609 7.03372C12.4609 15.2125 16.8277 19.5178 25.0052 19.5178ZM36.8351-75.1752L66.0017-75.1752C67.9407-75.1752 69.0673-76.2403 69.0673-77.9953L69.0673-82.672C69.0673-84.4889 67.9407-85.4921 66.0017-85.4921L59.5384-85.4921C59.5359-90.0483 55.9142-93.7306 51.4186-93.7306C46.9849-93.7306 43.3013-90.0483 43.2984-85.4921L36.8351-85.4921C34.958-85.4921 33.77-84.4889 33.77-82.672L33.77-77.9953C33.77-76.2403 34.958-75.1752 36.8351-75.1752ZM51.4186-81.0049C48.8658-81.0049 46.8725-83.0601 46.8725-85.551C46.8725-88.1657 48.8658-90.1586 51.4186-90.1586C53.9714-90.1586 55.9643-88.1657 55.9643-85.551C55.9643-83.0601 53.9714-81.0049 51.4186-81.0049ZM39.7794-31.913C40.0316-31.913 40.2825-32.102 40.2833-32.3542C41.0314-38.3889 41.593-41.3766 43.4609-43.2441C45.3283-45.1119 48.2545-45.6116 54.2888-46.3597C54.5414-46.4224 54.7919-46.6119 54.7919-46.8636C54.7919-47.1777 54.5414-47.3667 54.2888-47.4298C48.2545-48.1779 45.3283-48.6776 43.4609-50.5451C41.593-52.4125 41.0314-55.4006 40.2833-61.4353C40.2825-61.6875 40.0316-61.8761 39.7794-61.8761C39.5273-61.8761 39.3382-61.6875 39.2755-61.4353C38.5274-55.4006 38.0277-52.4125 36.1599-50.5451C34.2924-48.6776 31.3043-48.1779 25.27-47.4298C25.0174-47.3667 24.7669-47.1777 24.7669-46.8636C24.7669-46.6119 25.0174-46.4224 25.27-46.3597C31.3043-45.6116 34.2924-45.1119 36.1599-43.2441C38.0277-41.3766 38.5274-38.3889 39.2755-32.3542C39.3382-32.102 39.5273-31.913 39.7794-31.913Z"/>
  </g>
  <g id="Black-S" transform="matrix(1 0 0 1 2888.09 696)">
   <path d="M30.7617-26.5625L59.9609-26.5625C61.5234-26.5625 62.6953-27.7832 62.6953-29.3457C62.6953-30.8594 61.5234-32.0312 59.9609-32.0312L30.7617-32.0312C29.1504-32.0312 27.9785-30.8594 27.9785-29.3457C27.9785-27.7832 29.1504-26.5625 30.7617-26.5625ZM30.7617-12.5L48.7305-12.5C50.293-12.5 51.4648-13.7207 51.4648-15.2832C51.4648-16.7969 50.293-17.9688 48.7305-17.9688L30.7617-17.9688C29.1504-17.9688 27.9785-16.7969 27.9785-15.2832C27.9785-13.7207 29.1504-12.5 30.7617-12.5ZM25.0977 10.9863L65.5273 10.9863C74.707 10.9863 80.8594 4.78516 80.8594-4.54102L80.8594-61.9141C80.8594-71.2402 74.707-77.4414 65.5273-77.4414L64.8438-77.4414C65.5273-76.123 65.8691-74.5605 65.8691-72.8516L65.8691-68.8477C65.8691-67.1387 65.5273-65.5762 64.8438-64.2578L65.1367-64.2578C66.6504-64.2578 67.6758-63.2812 67.6758-61.8164L67.6758-4.63867C67.6758-3.17383 66.6504-2.19727 65.1367-2.19727L25.4883-2.19727C23.9746-2.19727 22.9492-3.17383 22.9492-4.63867L22.9492-61.8164C22.9492-63.2812 23.9746-64.2578 25.4883-64.2578L25.7812-64.2578C25.0977-65.5762 24.7559-67.1387 24.7559-68.8477L24.7559-72.8516C24.7559-74.5605 25.0977-76.123 25.7812-77.4414L25.0977-77.4414C15.918-77.4414 9.76562-71.2402 9.76562-61.9141L9.76562-4.54102C9.76562 4.78516 15.918 10.9863 25.0977 10.9863ZM33.6914-64.2578L56.9336-64.2578C59.6191-64.2578 61.2305-65.9668 61.2305-68.8477L61.2305-72.8516C61.2305-75.7324 59.6191-77.4414 56.9336-77.4414L55.0293-77.4414C54.6387-82.4707 50.4883-86.4746 45.3125-86.4746C40.1367-86.4746 35.9863-82.4707 35.5957-77.4414L33.6914-77.4414C31.0059-77.4414 29.3945-75.7324 29.3945-72.8516L29.3945-68.8477C29.3945-65.9668 31.0059-64.2578 33.6914-64.2578ZM45.3125-73.4375C43.3105-73.4375 41.6992-75.0977 41.6992-77.0508C41.6992-79.0039 43.3105-80.6152 45.3125-80.6152C47.3145-80.6152 48.9258-79.0039 48.9258-77.0508C48.9258-75.0977 47.3145-73.4375 45.3125-73.4375ZM36.8652-36.9629C37.5-36.9629 37.9883-37.5 38.1348-38.1836C38.4766-41.0156 38.8672-42.627 39.8926-43.6523C40.918-44.6777 42.5293-45.0684 45.3613-45.4102C46.0449-45.5566 46.582-45.9961 46.582-46.6797C46.582-47.3145 46.0449-47.8027 45.3613-47.9492C42.5293-48.291 40.918-48.6816 39.8926-49.707C38.8672-50.7324 38.4766-52.3438 38.1348-55.1758C37.9883-55.8594 37.5-56.3965 36.8652-56.3965C36.1816-56.3965 35.7422-55.8594 35.5957-55.1758C35.2539-52.3438 34.8633-50.7324 33.8379-49.707C32.8125-48.6816 31.2012-48.291 28.3691-47.9492C27.6855-47.8027 27.1484-47.3145 27.1484-46.6797C27.1484-45.9961 27.6855-45.5566 28.3691-45.4102C31.2012-45.0684 32.8125-44.6777 33.8379-43.6523C34.8633-42.627 35.2539-41.0156 35.5957-38.1836C35.7422-37.5 36.1816-36.9629 36.8652-36.9629Z"/>
  </g>
  <g id="Heavy-S" transform="matrix(1 0 0 1 2592.09 696)">
   <path d="M29.5632-25.871L59.7074-25.871C61.2584-25.871 62.4302-27.0802 62.4302-28.6312C62.4302-30.1333 61.2584-31.3052 59.7074-31.3052L29.5632-31.3052C27.9749-31.3052 26.803-30.1333 26.803-28.6312C26.803-27.0802 27.9749-25.871 29.5632-25.871ZM29.5632-11.7855L47.7624-11.7855C49.3019-11.7855 50.4853-13.0062 50.4853-14.5456C50.4853-16.0478 49.3134-17.2197 47.7624-17.2197L29.5632-17.2197C27.9749-17.2197 26.803-16.0478 26.803-14.5456C26.803-13.0062 27.9864-11.7855 29.5632-11.7855ZM24.3716 10.5484L64.8128 10.5484C73.762 10.5484 79.4303 4.84278 79.4303-4.2529L79.4303-61.6375C79.4303-70.6755 73.8081-76.4388 64.9396-76.4388L64.3482-76.4388C64.882-75.3509 65.1431-74.065 65.1431-72.6787L65.1431-68.6863C65.1431-67.2078 64.8704-65.8528 64.3136-64.6957L64.6066-64.6957C66.5236-64.6957 67.6873-63.4311 67.6873-61.5398L67.6873-4.35056C67.6873-2.40169 66.4545-1.18311 64.4337-1.18311L24.7622-1.18311C22.73-1.18311 21.4971-2.40169 21.4971-4.35056L21.4971-61.5398C21.4971-63.4311 22.6608-64.6957 24.5894-64.6957L24.8823-64.6957C24.3255-65.8528 24.0529-67.2078 24.0529-68.6863L24.0529-72.6787C24.0529-74.065 24.314-75.3509 24.8478-76.4388L24.2564-76.4388C15.3763-76.4388 9.76562-70.6755 9.76562-61.6375L9.76562-4.2529C9.76562 4.84278 15.4224 10.5484 24.3716 10.5484ZM32.9077-64.1771L56.2767-64.1771C58.8931-64.1771 60.4699-65.84 60.4699-68.6517L60.4699-72.6787C60.4699-75.4904 58.8931-77.1533 56.2767-77.1533L54.0728-77.1533C53.7052-82.0558 49.647-85.9675 44.598-85.9675C39.549-85.9675 35.4908-82.0558 35.1117-77.1533L32.9077-77.1533C30.2913-77.1533 28.7261-75.4904 28.7261-72.6787L28.7261-68.6517C28.7261-65.84 30.2913-64.1771 32.9077-64.1771ZM44.598-73.2301C42.6421-73.2301 41.0538-74.8556 41.0538-76.7742C41.0538-78.6927 42.6421-80.2695 44.598-80.2695C46.5538-80.2695 48.1306-78.6927 48.1306-76.7742C48.1306-74.8556 46.5538-73.2301 44.598-73.2301ZM36.3121-36.3982C36.9238-36.3982 37.389-36.9007 37.524-37.5497C37.9349-40.5892 38.3601-42.2927 39.4546-43.3758C40.5377-44.4703 42.2527-44.8955 45.2807-45.3064C45.9412-45.4414 46.4322-45.8808 46.4322-46.5183C46.4322-47.1301 45.9412-47.5953 45.2807-47.7418C42.2527-48.1527 40.5377-48.5779 39.4546-49.6609C38.3601-50.7439 37.9349-52.459 37.524-55.4985C37.389-56.1475 36.9238-56.6385 36.3121-56.6385C35.663-56.6385 35.2351-56.1475 35.1002-55.4985C34.6892-52.459 34.264-50.7439 33.1695-49.6609C32.0865-48.5779 30.3714-48.1527 27.3435-47.7418C26.6829-47.5953 26.1919-47.1301 26.1919-46.5183C26.1919-45.8808 26.6829-45.4414 27.3435-45.3064C30.3714-44.8955 32.0865-44.4703 33.1695-43.3758C34.264-42.2927 34.6892-40.5892 35.1002-37.5497C35.2351-36.9007 35.663-36.3982 36.3121-36.3982Z"/>
  </g>
  <g id="Bold-S" transform="matrix(1 0 0 1 2296.18 696)">
   <path d="M28.2227-25.0977L59.4238-25.0977C60.9619-25.0977 62.1338-26.2939 62.1338-27.832C62.1338-29.3213 60.9619-30.4932 59.4238-30.4932L28.2227-30.4932C26.6602-30.4932 25.4883-29.3213 25.4883-27.832C25.4883-26.2939 26.6602-25.0977 28.2227-25.0977ZM28.2227-10.9863L46.6797-10.9863C48.1934-10.9863 49.3896-12.207 49.3896-13.7207C49.3896-15.21 48.2178-16.3818 46.6797-16.3818L28.2227-16.3818C26.6602-16.3818 25.4883-15.21 25.4883-13.7207C25.4883-12.207 26.6846-10.9863 28.2227-10.9863ZM23.5596 10.0586L64.0137 10.0586C72.7051 10.0586 77.832 4.90723 77.832-3.93066L77.832-61.3281C77.832-70.0439 72.8027-75.3174 64.2822-75.3174L63.7939-75.3174C64.1602-74.4873 64.3311-73.5107 64.3311-72.4854L64.3311-68.5059C64.3311-67.2852 64.1357-66.1621 63.7207-65.1855L64.0137-65.1855C66.3818-65.1855 67.7002-63.5986 67.7002-61.2305L67.7002-4.02832C67.7002-1.53809 66.2354-0.0488281 63.6475-0.0488281L23.9502-0.0488281C21.3379-0.0488281 19.873-1.53809 19.873-4.02832L19.873-61.2305C19.873-63.5986 21.1914-65.1855 23.584-65.1855L23.877-65.1855C23.4619-66.1621 23.2666-67.2852 23.2666-68.5059L23.2666-72.4854C23.2666-73.5107 23.4375-74.4873 23.8037-75.3174L23.3154-75.3174C14.7705-75.3174 9.76562-70.0439 9.76562-61.3281L9.76562-3.93066C9.76562 4.90723 14.8682 10.0586 23.5596 10.0586ZM32.0312-64.0869L55.542-64.0869C58.0811-64.0869 59.6191-65.6982 59.6191-68.4326L59.6191-72.4854C59.6191-75.2197 58.0811-76.8311 55.542-76.8311L53.0029-76.8311C52.6611-81.5918 48.7061-85.4004 43.7988-85.4004C38.8916-85.4004 34.9365-81.5918 34.5703-76.8311L32.0312-76.8311C29.4922-76.8311 27.9785-75.2197 27.9785-72.4854L27.9785-68.4326C27.9785-65.6982 29.4922-64.0869 32.0312-64.0869ZM43.7988-72.998C41.8945-72.998 40.332-74.585 40.332-76.4648C40.332-78.3447 41.8945-79.8828 43.7988-79.8828C45.7031-79.8828 47.2412-78.3447 47.2412-76.4648C47.2412-74.585 45.7031-72.998 43.7988-72.998ZM35.6934-35.7666C36.2793-35.7666 36.7188-36.2305 36.8408-36.8408C37.3291-40.1123 37.793-41.9189 38.9648-43.0664C40.1123-44.2383 41.9434-44.7021 45.1904-45.1904C45.8252-45.3125 46.2646-45.752 46.2646-46.3379C46.2646-46.9238 45.8252-47.3633 45.1904-47.5098C41.9434-47.998 40.1123-48.4619 38.9648-49.6094C37.793-50.7568 37.3291-52.5879 36.8408-55.8594C36.7188-56.4697 36.2793-56.9092 35.6934-56.9092C35.083-56.9092 34.668-56.4697 34.5459-55.8594C34.0576-52.5879 33.5938-50.7568 32.4219-49.6094C31.2744-48.4619 29.4434-47.998 26.1963-47.5098C25.5615-47.3633 25.1221-46.9238 25.1221-46.3379C25.1221-45.752 25.5615-45.3125 26.1963-45.1904C29.4434-44.7021 31.2744-44.2383 32.4219-43.0664C33.5938-41.9189 34.0576-40.1123 34.5459-36.8408C34.668-36.2305 35.083-35.7666 35.6934-35.7666Z"/>
  </g>
  <g id="Semibold-S" transform="matrix(1 0 0 1 2000.02 696)">
   <path d="M27.2984-24.5645L59.2283-24.5645C60.7575-24.5645 61.9294-25.7519 61.9294-27.2811C61.9294-28.7614 60.7575-29.9333 59.2283-29.9333L27.2984-29.9333C25.7537-29.9333 24.5818-28.7614 24.5818-27.2811C24.5818-25.7519 25.7537-24.5645 27.2984-24.5645ZM27.2984-10.4354L45.9332-10.4354C47.4291-10.4354 48.6343-11.6561 48.6343-13.152C48.6343-14.6323 47.4624-15.8042 45.9332-15.8042L27.2984-15.8042C25.7537-15.8042 24.5818-14.6323 24.5818-13.152C24.5818-11.6561 25.787-10.4354 27.2984-10.4354ZM22.9997 9.7209L63.4627 9.7209C71.9764 9.7209 76.7301 4.95166 76.7301-3.7085L76.7301-61.1148C76.7301-69.6085 72.1096-74.5442 63.829-74.5442L63.4118-74.5442C63.6625-73.8919 63.7712-73.1286 63.7712-72.3521L63.7712-68.3814C63.7712-67.3385 63.6292-66.3754 63.3119-65.5232L63.6049-65.5232C66.2841-65.5232 67.7091-63.7142 67.7091-61.0172L67.7091-3.80615C67.7091-0.942676 66.0843 0.733203 63.1054 0.733203L23.3903 0.733203C20.3781 0.733203 18.7533-0.942676 18.7533-3.80615L18.7533-61.0172C18.7533-63.7142 20.1783-65.5232 22.8908-65.5232L23.1838-65.5232C22.8665-66.3754 22.7245-67.3385 22.7245-68.3814L22.7245-72.3521C22.7245-73.1286 22.8332-73.8919 23.0839-74.5442L22.6667-74.5442C14.3528-74.5442 9.76562-69.6085 9.76562-61.1148L9.76562-3.7085C9.76562 4.95166 14.486 9.7209 22.9997 9.7209ZM31.427-64.0247L55.0354-64.0247C57.5212-64.0247 59.0326-65.6005 59.0326-68.2815L59.0326-72.3521C59.0326-75.0331 57.5212-76.6089 55.0354-76.6089L52.2653-76.6089C51.9413-81.2719 48.0573-85.0094 43.2479-85.0094C38.4384-85.0094 34.5544-81.2719 34.1971-76.6089L31.427-76.6089C28.9412-76.6089 27.4631-75.0331 27.4631-72.3521L27.4631-68.2815C27.4631-65.6005 28.9412-64.0247 31.427-64.0247ZM43.2479-72.8381C41.3791-72.8381 39.8344-74.3983 39.8344-76.2516C39.8344-78.1048 41.3791-79.6162 43.2479-79.6162C45.1166-79.6162 46.628-78.1048 46.628-76.2516C46.628-74.3983 45.1166-72.8381 43.2479-72.8381ZM35.2668-35.3312C35.835-35.3312 36.2566-35.7684 36.3698-36.3521C36.9114-39.7835 37.402-41.6612 38.6271-42.8531C39.819-44.0783 41.7301-44.5688 45.1282-45.1104C45.7452-45.2236 46.1491-45.6631 46.1491-46.2135C46.1491-46.7816 45.7452-47.2033 45.1282-47.3498C41.7301-47.8914 39.819-48.3819 38.6271-49.5738C37.402-50.7657 36.9114-52.6768 36.3698-56.1082C36.2566-56.6919 35.835-57.0958 35.2668-57.0958C34.6831-57.0958 34.277-56.6919 34.1638-56.1082C33.6222-52.6768 33.1316-50.7657 31.9064-49.5738C30.7146-48.3819 28.8035-47.8914 25.4054-47.3498C24.7884-47.2033 24.3845-46.7816 24.3845-46.2135C24.3845-45.6631 24.7884-45.2236 25.4054-45.1104C28.8035-44.5688 30.7146-44.0783 31.9064-42.8531C33.1316-41.6612 33.6222-39.7835 34.1638-36.3521C34.277-35.7684 34.6831-35.3312 35.2668-35.3312Z"/>
  </g>
  <g id="Medium-S" transform="matrix(1 0 0 1 1703.73 696)">
   <path d="M26.5977-24.1602L59.0801-24.1602C60.6025-24.1602 61.7744-25.3408 61.7744-26.8633C61.7744-28.3369 60.6025-29.5088 59.0801-29.5088L26.5977-29.5088C25.0664-29.5088 23.8945-28.3369 23.8945-26.8633C23.8945-25.3408 25.0664-24.1602 26.5977-24.1602ZM26.5977-10.0176L45.3672-10.0176C46.8496-10.0176 48.0615-11.2383 48.0615-12.7207C48.0615-14.1943 46.8896-15.3662 45.3672-15.3662L26.5977-15.3662C25.0664-15.3662 23.8945-14.1943 23.8945-12.7207C23.8945-11.2383 25.1064-10.0176 26.5977-10.0176ZM22.5752 9.46484L63.0449 9.46484C71.4238 9.46484 75.8945 4.98535 75.8945-3.54004L75.8945-60.9531C75.8945-69.2783 71.584-73.958 63.4854-73.958L63.1221-73.958C63.2852-73.4404 63.3467-72.8389 63.3467-72.251L63.3467-68.2871C63.3467-67.3789 63.2451-66.5371 63.002-65.7793L63.2949-65.7793C66.21-65.7793 67.7158-63.8018 67.7158-60.8555L67.7158-3.6377C67.7158-0.491211 65.9697 1.32617 62.6943 1.32617L22.9658 1.32617C19.6504 1.32617 17.9043-0.491211 17.9043-3.6377L17.9043-60.8555C17.9043-63.8018 19.4102-65.7793 22.3652-65.7793L22.6582-65.7793C22.415-66.5371 22.3135-67.3789 22.3135-68.2871L22.3135-72.251C22.3135-72.8389 22.375-73.4404 22.5381-73.958L22.1748-73.958C14.0361-73.958 9.76562-69.2783 9.76562-60.9531L9.76562-3.54004C9.76562 4.98535 14.1963 9.46484 22.5752 9.46484ZM30.9688-63.9775L54.6514-63.9775C57.0967-63.9775 58.5879-65.5264 58.5879-68.167L58.5879-72.251C58.5879-74.8916 57.0967-76.4404 54.6514-76.4404L51.7061-76.4404C51.3955-81.0293 47.5654-84.7129 42.8301-84.7129C38.0947-84.7129 34.2646-81.0293 33.9141-76.4404L30.9688-76.4404C28.5234-76.4404 27.0723-74.8916 27.0723-72.251L27.0723-68.167C27.0723-65.5264 28.5234-63.9775 30.9688-63.9775ZM42.8301-72.7168C40.9883-72.7168 39.457-74.2568 39.457-76.0898C39.457-77.9229 40.9883-79.4141 42.8301-79.4141C44.6719-79.4141 46.1631-77.9229 46.1631-76.0898C46.1631-74.2568 44.6719-72.7168 42.8301-72.7168ZM34.9434-35.001C35.498-35.001 35.9062-35.418 36.0127-35.9814C36.5947-39.5342 37.1055-41.4658 38.3711-42.6914C39.5967-43.957 41.5684-44.4678 45.0811-45.0498C45.6846-45.1562 46.0615-45.5957 46.0615-46.1191C46.0615-46.6738 45.6846-47.082 45.0811-47.2285C41.5684-47.8105 39.5967-48.3213 38.3711-49.5469C37.1055-50.7725 36.5947-52.7441 36.0127-56.2969C35.9062-56.8604 35.498-57.2373 34.9434-57.2373C34.3799-57.2373 33.9805-56.8604 33.874-56.2969C33.292-52.7441 32.7812-50.7725 31.5156-49.5469C30.29-48.3213 28.3184-47.8105 24.8057-47.2285C24.2021-47.082 23.8252-46.6738 23.8252-46.1191C23.8252-45.5957 24.2021-45.1562 24.8057-45.0498C28.3184-44.4678 30.29-43.957 31.5156-42.6914C32.7812-41.4658 33.292-39.5342 33.874-35.9814C33.9805-35.418 34.3799-35.001 34.9434-35.001Z"/>
  </g>
  <g id="Regular-S" transform="matrix(1 0 0 1 1407.56 696)">
   <path d="M25.6836-23.6328L58.8867-23.6328C60.4004-23.6328 61.5723-24.8047 61.5723-26.3184C61.5723-27.7832 60.4004-28.9551 58.8867-28.9551L25.6836-28.9551C24.1699-28.9551 22.998-27.7832 22.998-26.3184C22.998-24.8047 24.1699-23.6328 25.6836-23.6328ZM25.6836-9.47266L44.6289-9.47266C46.0938-9.47266 47.3145-10.6934 47.3145-12.1582C47.3145-13.623 46.1426-14.7949 44.6289-14.7949L25.6836-14.7949C24.1699-14.7949 22.998-13.623 22.998-12.1582C22.998-10.6934 24.2188-9.47266 25.6836-9.47266ZM22.0215 9.13086L62.5 9.13086C70.7031 9.13086 74.8047 5.0293 74.8047-3.32031L74.8047-60.7422C74.8047-68.8477 70.8984-73.1934 63.0371-73.1934L62.7441-73.1934C62.793-72.8516 62.793-72.4609 62.793-72.1191L62.793-68.1641C62.793-67.4316 62.7441-66.748 62.5977-66.1133L62.8906-66.1133C66.1133-66.1133 67.7246-63.916 67.7246-60.6445L67.7246-3.41797C67.7246 0.0976562 65.8203 2.09961 62.1582 2.09961L22.4121 2.09961C18.7012 2.09961 16.7969 0.0976562 16.7969-3.41797L16.7969-60.6445C16.7969-63.916 18.4082-66.1133 21.6797-66.1133L21.9727-66.1133C21.8262-66.748 21.7773-67.4316 21.7773-68.1641L21.7773-72.1191C21.7773-72.4609 21.7773-72.8516 21.8262-73.1934L21.5332-73.1934C13.623-73.1934 9.76562-68.8477 9.76562-60.7422L9.76562-3.32031C9.76562 5.0293 13.8184 9.13086 22.0215 9.13086ZM30.3711-63.916L54.1504-63.916C56.543-63.916 58.0078-65.4297 58.0078-68.0176L58.0078-72.1191C58.0078-74.707 56.543-76.2207 54.1504-76.2207L50.9766-76.2207C50.6836-80.7129 46.9238-84.3262 42.2852-84.3262C37.6465-84.3262 33.8867-80.7129 33.5449-76.2207L30.3711-76.2207C27.9785-76.2207 26.5625-74.707 26.5625-72.1191L26.5625-68.0176C26.5625-65.4297 27.9785-63.916 30.3711-63.916ZM42.2852-72.5586C40.4785-72.5586 38.9648-74.0723 38.9648-75.8789C38.9648-77.6855 40.4785-79.1504 42.2852-79.1504C44.0918-79.1504 45.5566-77.6855 45.5566-75.8789C45.5566-74.0723 44.0918-72.5586 42.2852-72.5586ZM34.5215-34.5703C35.0586-34.5703 35.4492-34.9609 35.5469-35.498C36.1816-39.209 36.7188-41.2109 38.0371-42.4805C39.3066-43.7988 41.3574-44.3359 45.0195-44.9707C45.6055-45.0684 45.9473-45.5078 45.9473-45.9961C45.9473-46.5332 45.6055-46.9238 45.0195-47.0703C41.3574-47.7051 39.3066-48.2422 38.0371-49.5117C36.7188-50.7812 36.1816-52.832 35.5469-56.543C35.4492-57.0801 35.0586-57.4219 34.5215-57.4219C33.9844-57.4219 33.5938-57.0801 33.4961-56.543C32.8613-52.832 32.3242-50.7812 31.0059-49.5117C29.7363-48.2422 27.6855-47.7051 24.0234-47.0703C23.4375-46.9238 23.0957-46.5332 23.0957-45.9961C23.0957-45.5078 23.4375-45.0684 24.0234-44.9707C27.6855-44.3359 29.7363-43.7988 31.0059-42.4805C32.3242-41.2109 32.8613-39.209 33.4961-35.498C33.5938-34.9609 33.9844-34.5703 34.5215-34.5703Z"/>
  </g>
  <g id="Light-S" transform="matrix(1 0 0 1 1111.47 696)">
   <path d="M24.5332-23.4512L58.7959-23.4512C59.9917-23.4512 60.9365-24.3809 60.9365-25.5918C60.9365-26.7691 59.9917-27.6987 58.7959-27.6987L24.5332-27.6987C23.3374-27.6987 22.3926-26.7691 22.3926-25.5918C22.3926-24.3809 23.3374-23.4512 24.5332-23.4512ZM24.5332-8.98829L44.0991-8.98829C45.2764-8.98829 46.2398-9.9668 46.2398-11.1441C46.2398-12.3062 45.3101-13.251 44.0991-13.251L24.5332-13.251C23.3374-13.251 22.3926-12.3062 22.3926-11.1441C22.3926-9.9668 23.3711-8.98829 24.5332-8.98829ZM21.2647 8.67676L62.0308 8.67676C69.689 8.67676 73.5635 4.80225 73.5635-2.9419L73.5635-61.4536C73.5635-69.0293 69.8086-73.0874 62.4014-73.0874L60.958-73.0874C60.9917-72.8062 60.9917-72.4761 60.9917-72.1948L60.9917-69.1782C60.9917-68.6426 60.958-68.1103 60.8721-67.6269L62.27-67.6269C66.1436-67.6269 68.1182-65.2632 68.1182-61.356L68.1182-3.03955C68.1182 1.02099 65.9414 3.26513 61.7647 3.26513L21.5645 3.26513C17.354 3.26513 15.1924 1.02099 15.1924-3.03955L15.1924-61.356C15.1924-65.2632 17.1519-67.6269 21.0591-67.6269L22.4722-67.6269C22.3711-68.1103 22.3374-68.6426 22.3374-69.1782L22.3374-72.1948C22.3374-72.4761 22.3374-72.8062 22.3711-73.0874L20.9277-73.0874C13.4868-73.0874 9.76562-69.0293 9.76562-61.4536L9.76562-2.9419C9.76562 4.80225 13.6216 8.67676 21.2647 8.67676ZM29.9019-64.7334L53.3936-64.7334C55.5137-64.7334 56.7969-66.0352 56.7969-68.2446L56.7969-72.21C56.7969-74.4346 55.5137-75.7212 53.3936-75.7212L49.6294-75.7212C49.4273-79.9258 45.9551-83.312 41.6646-83.312C37.3892-83.312 33.9019-79.9258 33.666-75.7212L29.9019-75.7212C27.7969-75.7212 26.5322-74.4346 26.5322-72.21L26.5322-68.2446C26.5322-66.0352 27.7969-64.7334 29.9019-64.7334ZM41.6646-72.1045C39.7974-72.1045 38.2686-73.6484 38.2686-75.5005C38.2686-77.3828 39.7974-78.8779 41.6646-78.8779C43.5317-78.8779 45.0269-77.3828 45.0269-75.5005C45.0269-73.6484 43.5317-72.1045 41.6646-72.1045ZM33.4771-33.9648C33.9082-33.9648 34.2383-34.2798 34.3057-34.7109C34.9253-38.7397 35.4321-40.8477 36.7959-42.1777C38.126-43.5415 40.2525-44.0332 44.2476-44.6528C44.7124-44.7354 45.0088-45.084 45.0088-45.4814C45.0088-45.9277 44.7124-46.2427 44.2476-46.3589C40.2525-46.9785 38.126-47.4702 36.7959-48.8003C35.4321-50.1304 34.9253-52.272 34.3057-56.3008C34.2383-56.7319 33.9082-57.0132 33.4771-57.0132C33.0459-57.0132 32.731-56.7319 32.6484-56.3008C32.0288-52.272 31.5371-50.1304 30.1733-48.8003C28.8433-47.4702 26.7017-46.9785 22.7066-46.3589C22.2417-46.2427 21.9453-45.9277 21.9453-45.4814C21.9453-45.084 22.2417-44.7354 22.7066-44.6528C26.7017-44.0332 28.8433-43.5415 30.1733-42.1777C31.5371-40.8477 32.0288-38.7397 32.6484-34.7109C32.731-34.2798 33.0459-33.9648 33.4771-33.9648Z"/>
  </g>
  <g id="Thin-S" transform="matrix(1 0 0 1 815.578 696)">
   <path d="M23.0117-23.2109L58.6758-23.2109C59.4512-23.2109 60.0957-23.8203 60.0957-24.6309C60.0957-25.4278 59.4512-26.0371 58.6758-26.0371L23.0117-26.0371C22.2363-26.0371 21.5918-25.4278 21.5918-24.6309C21.5918-23.8203 22.2363-23.2109 23.0117-23.2109ZM23.0117-8.34767L43.3984-8.34767C44.1953-8.34767 44.8184-9.00587 44.8184-9.80275C44.8184-10.5645 44.209-11.209 43.3984-11.209L23.0117-11.209C22.2363-11.209 21.5918-10.5645 21.5918-9.80275C21.5918-9.00587 22.25-8.34767 23.0117-8.34767ZM20.2637 8.07618L61.4102 8.07618C68.3477 8.07618 71.9219 4.50196 71.9219-2.44141L71.9219-62.3945C71.9219-69.2695 68.3672-72.9473 61.5606-72.9473L58.5957-72.9473C58.6094-72.7461 58.6094-72.4961 58.6094-72.2949L58.6094-70.5195C58.6094-70.2441 58.5957-69.9121 58.5899-69.6289L61.4492-69.6289C66.1836-69.6289 68.6387-67.0449 68.6387-62.2969L68.6387-2.53907C68.6387 2.24217 66.1016 4.80662 61.2441 4.80662L20.4434 4.80662C15.5723 4.80662 13.0703 2.24217 13.0703-2.53907L13.0703-62.2969C13.0703-67.0449 15.4903-69.6289 20.2383-69.6289L23.1328-69.6289C23.0918-69.9121 23.0781-70.2441 23.0781-70.5195L23.0781-72.2949C23.0781-72.4961 23.0781-72.7461 23.0918-72.9473L20.127-72.9473C13.3066-72.9473 9.76562-69.2695 9.76562-62.3945L9.76562-2.44141C9.76562 4.50196 13.3613 8.07618 20.2637 8.07618ZM29.2813-65.8144L52.3926-65.8144C54.1524-65.8144 55.1953-66.8359 55.1953-68.5449L55.1953-72.3301C55.1953-74.0742 54.1524-75.0606 52.3926-75.0606L47.8477-75.0606C47.7656-78.8848 44.6738-81.9707 40.8438-81.9707C37.0488-81.9707 33.9219-78.8848 33.8262-75.0606L29.2813-75.0606C27.5566-75.0606 26.4922-74.0742 26.4922-72.3301L26.4922-68.5449C26.4922-66.8359 27.5566-65.8144 29.2813-65.8144ZM40.8438-71.5039C38.8965-71.5039 37.3477-73.0879 37.3477-75C37.3477-76.9824 38.8965-78.5176 40.8438-78.5176C42.791-78.5176 44.3262-76.9824 44.3262-75C44.3262-73.0879 42.791-71.5039 40.8438-71.5039ZM32.0957-33.1641C32.3867-33.1641 32.6367-33.3789 32.6641-33.6699C33.2637-38.1191 33.7305-40.3672 35.1543-41.7773C36.5645-43.2012 38.791-43.6328 43.2266-44.2324C43.5313-44.2949 43.7676-44.5234 43.7676-44.8008C43.7676-45.127 43.5313-45.3418 43.2266-45.418C38.791-46.0176 36.5645-46.4492 35.1543-47.8594C33.7305-49.2695 33.2637-51.5313 32.6641-55.9805C32.6367-56.2715 32.3867-56.4727 32.0957-56.4727C31.8047-56.4727 31.5899-56.2715 31.5274-55.9805C30.9277-51.5313 30.4961-49.2695 29.0723-47.8594C27.6621-46.4492 25.4004-46.0176 20.9649-45.418C20.6602-45.3418 20.4238-45.127 20.4238-44.8008C20.4238-44.5234 20.6602-44.2949 20.9649-44.2324C25.4004-43.6328 27.6621-43.2012 29.0723-41.7773C30.4961-40.3672 30.9277-38.1191 31.5274-33.6699C31.5899-33.3789 31.8047-33.1641 32.0957-33.1641Z"/>
  </g>
  <g id="Ultralight-S" transform="matrix(1 0 0 1 519.288 696)">
   <path d="M22.2324-23.0879L58.6143-23.0879C59.1743-23.0879 59.6651-23.5332 59.6651-24.1387C59.6651-24.7407 59.1743-25.1861 58.6143-25.1861L22.2324-25.1861C21.6724-25.1861 21.1817-24.7407 21.1817-24.1387C21.1817-23.5332 21.6724-23.0879 22.2324-23.0879ZM22.2324-8.01954L43.0396-8.01954C43.6416-8.01954 44.0904-8.51369 44.0904-9.11575C44.0904-9.67239 43.645-10.1631 43.0396-10.1631L22.2324-10.1631C21.6724-10.1631 21.1817-9.67239 21.1817-9.11575C21.1817-8.51369 21.6758-8.01954 22.2324-8.01954ZM19.751 7.76857L61.0923 7.76857C67.6607 7.76857 71.0811 4.34815 71.0811-2.18507L71.0811-62.8764C71.0811-69.3926 67.6289-72.8755 61.1299-72.8755L57.3858-72.8755C57.3892-72.7153 57.3892-72.5063 57.3892-72.3462L57.3892-71.2065C57.3892-71.0644 57.3858-70.8349 57.4209-70.6543L61.0288-70.6543C66.2041-70.6543 68.9053-67.9575 68.9053-62.7788L68.9053-2.28272C68.9053 2.86765 66.1836 5.59616 60.9775 5.59616L19.8692 5.59616C14.6597 5.59616 11.9834 2.86765 11.9834-2.28272L11.9834-62.7788C11.9834-67.9575 14.6392-70.6543 19.8179-70.6543L23.4712-70.6543C23.4609-70.8349 23.4575-71.0644 23.4575-71.2065L23.4575-72.3462C23.4575-72.5063 23.4575-72.7153 23.4609-72.8755L19.7168-72.8755C13.2144-72.8755 9.76562-69.3926 9.76562-62.8764L9.76562-2.18507C9.76562 4.34815 13.228 7.76857 19.751 7.76857ZM28.9634-66.3681L51.8799-66.3681C53.4551-66.3681 54.375-67.2461 54.375-68.6987L54.375-72.3916C54.375-73.8897 53.4551-74.7222 51.8799-74.7222L46.9351-74.7222C46.9146-78.3516 44.0176-81.2837 40.4234-81.2837C36.8745-81.2837 33.9321-78.3516 33.9082-74.7222L28.9634-74.7222C27.4336-74.7222 26.4717-73.8897 26.4717-72.3916L26.4717-68.6987C26.4717-67.2461 27.4336-66.3681 28.9634-66.3681ZM40.4234-71.1963C38.4351-71.1963 36.876-72.8008 36.876-74.7437C36.876-76.7774 38.4351-78.333 40.4234-78.333C42.4116-78.333 43.9673-76.7774 43.9673-74.7437C43.9673-72.8008 42.4116-71.1963 40.4234-71.1963ZM31.3882-32.7539C31.6074-32.7539 31.8164-32.9175 31.8233-33.1367C32.4126-37.8013 32.8589-40.1211 34.3135-41.5723C35.7647-43.0269 38.0425-43.4277 42.7036-44.0171C42.9263-44.0693 43.1319-44.2363 43.1319-44.4522C43.1319-44.7168 42.9263-44.8804 42.7036-44.9361C38.0425-45.5254 35.7647-45.9263 34.3135-47.3775C32.8589-48.8286 32.4126-51.1519 31.8233-55.8164C31.8164-56.0357 31.6074-56.1958 31.3882-56.1958C31.169-56.1958 31.0054-56.0357 30.9531-55.8164C30.3638-51.1519 29.9629-48.8286 28.5083-47.3775C27.0572-45.9263 24.7339-45.5254 20.0728-44.9361C19.8501-44.8804 19.6446-44.7168 19.6446-44.4522C19.6446-44.2363 19.8501-44.0693 20.0728-44.0171C24.7339-43.4277 27.0572-43.0269 28.5083-41.5723C29.9629-40.1211 30.3638-37.8013 30.9531-33.1367C31.0054-32.9175 31.169-32.7539 31.3882-32.7539Z"/>
  </g>
 </g>
</svg>
