<?xml version="1.0" encoding="UTF-8"?>
<!--Generator: Apple Native CoreSVG 341-->
<!DOCTYPE svg
PUBLIC "-//W3C//DTD SVG 1.1//EN"
       "http://www.w3.org/Graphics/SVG/1.1/DTD/svg11.dtd">
<svg version="1.1" xmlns="http://www.w3.org/2000/svg" xmlns:xlink="http://www.w3.org/1999/xlink" viewBox="0 0 3300 2200">
 <g id="Notes">
  <rect height="2200" id="artboard" style="fill:white;opacity:1" width="3300" x="0" y="0"/>
  <line style="fill:none;stroke:black;opacity:1;stroke-width:0.5;" x1="263" x2="3036" y1="292" y2="292"/>
  <text style="stroke:none;fill:black;font-family:sans-serif;font-size:13;font-weight:bold;" transform="matrix(1 0 0 1 263 322)">Weight/Scale Variations</text>
  <text style="stroke:none;fill:black;font-family:sans-serif;font-size:13;text-anchor:middle;" transform="matrix(1 0 0 1 559.711 322)">Ultralight</text>
  <text style="stroke:none;fill:black;font-family:sans-serif;font-size:13;text-anchor:middle;" transform="matrix(1 0 0 1 856.422 322)">Thin</text>
  <text style="stroke:none;fill:black;font-family:sans-serif;font-size:13;text-anchor:middle;" transform="matrix(1 0 0 1 1153.13 322)">Light</text>
  <text style="stroke:none;fill:black;font-family:sans-serif;font-size:13;text-anchor:middle;" transform="matrix(1 0 0 1 1449.84 322)">Regular</text>
  <text style="stroke:none;fill:black;font-family:sans-serif;font-size:13;text-anchor:middle;" transform="matrix(1 0 0 1 1746.56 322)">Medium</text>
  <text style="stroke:none;fill:black;font-family:sans-serif;font-size:13;text-anchor:middle;" transform="matrix(1 0 0 1 2043.27 322)">Semibold</text>
  <text style="stroke:none;fill:black;font-family:sans-serif;font-size:13;text-anchor:middle;" transform="matrix(1 0 0 1 2339.98 322)">Bold</text>
  <text style="stroke:none;fill:black;font-family:sans-serif;font-size:13;text-anchor:middle;" transform="matrix(1 0 0 1 2636.69 322)">Heavy</text>
  <text style="stroke:none;fill:black;font-family:sans-serif;font-size:13;text-anchor:middle;" transform="matrix(1 0 0 1 2933.4 322)">Black</text>
  <line style="fill:none;stroke:black;opacity:1;stroke-width:0.5;" x1="263" x2="3036" y1="1903" y2="1903"/>
  <g transform="matrix(0.2 0 0 0.2 263 1933)">
   <path d="m46.2402 4.15039c21.7773 0 39.4531-17.627 39.4531-39.4043s-17.6758-39.4043-39.4531-39.4043c-21.7285 0-39.4043 17.627-39.4043 39.4043s17.6758 39.4043 39.4043 39.4043Zm0-7.42188c-17.6758 0-31.9336-14.3066-31.9336-31.9824s14.2578-31.9824 31.9336-31.9824 31.9824 14.3066 31.9824 31.9824-14.3066 31.9824-31.9824 31.9824Zm3.61328-17.7734v-28.4668c0-2.24609-1.46484-3.75977-3.71094-3.75977-2.14844 0-3.61328 1.51367-3.61328 3.75977v28.4668c0 2.19727 1.46484 3.71094 3.61328 3.71094 2.24609 0 3.71094-1.51367 3.71094-3.71094Zm-17.8223-10.5957h28.418c2.19727 0 3.71094-1.46484 3.71094-3.61328 0-2.19727-1.51367-3.71094-3.71094-3.71094h-28.418c-2.24609 0-3.75977 1.51367-3.75977 3.71094 0 2.14844 1.51367 3.61328 3.75977 3.61328Z"/>
  </g>
  <g transform="matrix(0.2 0 0 0.2 281.506 1933)">
   <path d="m58.5449 14.5508c27.4902 0 49.8047-22.3145 49.8047-49.8047s-22.3145-49.8047-49.8047-49.8047-49.8047 22.3145-49.8047 49.8047 22.3145 49.8047 49.8047 49.8047Zm0-8.30078c-22.9492 0-41.5039-18.5547-41.5039-41.5039s18.5547-41.5039 41.5039-41.5039 41.5039 18.5547 41.5039 41.5039-18.5547 41.5039-41.5039 41.5039Zm4.05273-23.0957v-36.9141c0-2.49023-1.70898-4.19922-4.15039-4.19922-2.39258 0-4.05273 1.70898-4.05273 4.19922v36.9141c0 2.44141 1.66016 4.15039 4.05273 4.15039 2.44141 0 4.15039-1.66016 4.15039-4.15039Zm-22.5586-14.4043h36.9629c2.44141 0 4.15039-1.61133 4.15039-4.00391 0-2.44141-1.70898-4.15039-4.15039-4.15039h-36.9629c-2.49023 0-4.15039 1.70898-4.15039 4.15039 0 2.39258 1.66016 4.00391 4.15039 4.00391Z"/>
  </g>
  <g transform="matrix(0.2 0 0 0.2 304.924 1933)">
   <path d="m74.8535 28.3203c35.1074 0 63.623-28.4668 63.623-63.5742s-28.5156-63.623-63.623-63.623-63.5742 28.5156-63.5742 63.623 28.4668 63.5742 63.5742 63.5742Zm0-9.08203c-30.127 0-54.4922-24.3652-54.4922-54.4922s24.3652-54.4922 54.4922-54.4922 54.4922 24.3652 54.4922 54.4922-24.3652 54.4922-54.4922 54.4922Zm4.44336-30.3223v-48.4863c0-2.73438-1.85547-4.63867-4.54102-4.63867-2.58789 0-4.44336 1.9043-4.44336 4.63867v48.4863c0 2.68555 1.85547 4.58984 4.44336 4.58984 2.68555 0 4.54102-1.85547 4.54102-4.58984Zm-28.7109-19.7754h48.4863c2.68555 0 4.58984-1.80664 4.58984-4.39453 0-2.73438-1.85547-4.58984-4.58984-4.58984h-48.4863c-2.73438 0-4.58984 1.85547-4.58984 4.58984 0 2.58789 1.85547 4.39453 4.58984 4.39453Z"/>
  </g>
  <text style="stroke:none;fill:black;font-family:sans-serif;font-size:13;font-weight:bold;" transform="matrix(1 0 0 1 263 1953)">Design Variations</text>
  <text style="stroke:none;fill:black;font-family:sans-serif;font-size:13;" transform="matrix(1 0 0 1 263 1971)">Symbols are supported in up to nine weights and three scales.</text>
  <text style="stroke:none;fill:black;font-family:sans-serif;font-size:13;" transform="matrix(1 0 0 1 263 1989)">For optimal layout with text and other symbols, vertically align</text>
  <text style="stroke:none;fill:black;font-family:sans-serif;font-size:13;" transform="matrix(1 0 0 1 263 2007)">symbols with the adjacent text.</text>
  <line style="fill:none;stroke:#00AEEF;stroke-width:0.5;opacity:1.0;" x1="776" x2="776" y1="1919" y2="1933"/>
  <g transform="matrix(0.2 0 0 0.2 776 1933)">
   <path d="m16.5527 0.78125c2.58789 0 3.85742-0.976562 4.78516-3.71094l20.5566-57.5195h0.244141l20.6055 57.5195c0.927734 2.73438 2.19727 3.71094 4.73633 3.71094 2.58789 0 4.24805-1.5625 4.24805-4.00391 0-0.830078-0.146484-1.61133-0.537109-2.63672l-22.9004-60.9863c-1.12305-2.97852-3.125-4.49219-6.25-4.49219-3.02734 0-5.07812 1.46484-6.15234 4.44336l-22.9004 61.084c-0.390625 1.02539-0.537109 1.80664-0.537109 2.63672 0 2.44141 1.5625 3.95508 4.10156 3.95508Zm10.2051-20.9473h30.6641c2.00195 0 3.66211-1.66016 3.66211-3.66211 0-2.05078-1.66016-3.66211-3.66211-3.66211h-30.6641c-2.00195 0-3.66211 1.61133-3.66211 3.66211 0 2.00195 1.66016 3.66211 3.66211 3.66211Z"/>
  </g>
  <line style="fill:none;stroke:#00AEEF;stroke-width:0.5;opacity:1.0;" x1="792.836" x2="792.836" y1="1919" y2="1933"/>
  <text style="stroke:none;fill:black;font-family:sans-serif;font-size:13;font-weight:bold;" transform="matrix(1 0 0 1 776 1953)">Margins</text>
  <text style="stroke:none;fill:black;font-family:sans-serif;font-size:13;" transform="matrix(1 0 0 1 776 1971)">Leading and trailing margins on the left and right side of each symbol</text>
  <text style="stroke:none;fill:black;font-family:sans-serif;font-size:13;" transform="matrix(1 0 0 1 776 1989)">can be adjusted by modifying the x-location of the margin guidelines.</text>
  <text style="stroke:none;fill:black;font-family:sans-serif;font-size:13;" transform="matrix(1 0 0 1 776 2007)">Modifications are automatically applied proportionally to all</text>
  <text style="stroke:none;fill:black;font-family:sans-serif;font-size:13;" transform="matrix(1 0 0 1 776 2025)">scales and weights.</text>
  <g transform="matrix(0.2 0 0 0.2 1289 1933)">
   <path d="m14.209 13.1348 7.86133 7.86133c4.29688 4.39453 9.32617 4.10156 13.8672-1.02539l60.6934-68.2129-4.88281-4.88281-60.2539 67.6758c-1.80664 1.95312-3.4668 2.44141-5.81055 0.0976562l-5.17578-5.12695c-2.29492-2.29492-1.80664-3.95508 0.195312-5.81055l67.4805-62.1582-4.88281-4.83398-68.0664 62.5977c-4.98047 4.58984-5.32227 9.47266-1.02539 13.8184Zm44.873-97.4609c-2.05078 2.00195-2.24609 4.88281-1.07422 6.78711 1.12305 1.80664 3.4668 3.02734 6.5918 2.24609 5.85938-1.66016 12.5977-2.39258 18.8965 0.927734l-2.68555 7.12891c-1.61133 4.00391-0.732422 6.88477 1.70898 9.42383l10.2539 10.3027c2.34375 2.39258 4.54102 2.44141 7.08008 1.95312l4.44336-0.732422 2.58789 2.53906-0.195312 2.24609c-0.0976562 2.29492 0.537109 4.29688 2.7832 6.49414l3.36914 3.32031c2.29492 2.29492 5.51758 2.49023 7.8125 0.195312l12.9883-13.0371c2.29492-2.34375 2.14844-5.37109-0.195312-7.66602l-3.41797-3.41797c-2.19727-2.19727-4.05273-3.02734-6.34766-2.88086l-2.34375 0.244141-2.44141-2.44141 1.02539-4.6875c0.634766-2.73438-0.244141-4.98047-2.88086-7.61719l-11.2793-11.1816c-12.9395-12.8418-35.5957-11.0352-46.6797-0.146484Zm7.08008 2.05078c8.78906-6.39648 25.9766-5.66406 33.6914 1.95312l12.3047 12.207c1.02539 1.02539 1.2207 1.80664 0.927734 3.32031l-1.46484 6.64062 6.73828 6.68945 4.39453-0.244141c1.12305-0.0488281 1.51367 0.0488281 2.34375 0.878906l2.53906 2.49023-10.8398 10.8398-2.49023-2.49023c-0.830078-0.878906-0.976562-1.2207-0.927734-2.39258l0.292969-4.3457-6.68945-6.73828-6.83594 1.17188c-1.41602 0.292969-2.05078 0.195312-3.17383-0.878906l-8.93555-8.88672c-1.07422-1.02539-1.17188-1.70898-0.488281-3.36914l4.58984-11.4746c-6.10352-6.34766-17.041-7.51953-25.5859-4.58984-0.683594 0.244141-0.927734-0.390625-0.390625-0.78125Z"/>
  </g>
  <text style="stroke:none;fill:black;font-family:sans-serif;font-size:13;font-weight:bold;" transform="matrix(1 0 0 1 1289 1953)">Exporting</text>
  <text style="stroke:none;fill:black;font-family:sans-serif;font-size:13;" transform="matrix(1 0 0 1 1289 1971)">Symbols should be outlined when exporting to ensure the</text>
  <text style="stroke:none;fill:black;font-family:sans-serif;font-size:13;" transform="matrix(1 0 0 1 1289 1989)">design is preserved when submitting to Xcode.</text>
  <text id="template-version" style="stroke:none;fill:black;font-family:sans-serif;font-size:13;text-anchor:end;" transform="matrix(1 0 0 1 3036 1933)">Template v.2.0</text>
  <text style="stroke:none;fill:black;font-family:sans-serif;font-size:13;text-anchor:end;" transform="matrix(1 0 0 1 3036 1951)">Requires Xcode 12 or greater</text>
  <text id="descriptive-name" style="stroke:none;fill:black;font-family:sans-serif;font-size:13;text-anchor:end;" transform="matrix(1 0 0 1 3036 1969)">Generated from clock.arrow.trianglehead.counterclockwise.rotate.90</text>
  <text style="stroke:none;fill:black;font-family:sans-serif;font-size:13;text-anchor:end;" transform="matrix(1 0 0 1 3036 1987)">Typeset at 100.0 points</text>
  <text style="stroke:none;fill:black;font-family:sans-serif;font-size:13;" transform="matrix(1 0 0 1 263 726)">Small</text>
  <text style="stroke:none;fill:black;font-family:sans-serif;font-size:13;" transform="matrix(1 0 0 1 263 1156)">Medium</text>
  <text style="stroke:none;fill:black;font-family:sans-serif;font-size:13;" transform="matrix(1 0 0 1 263 1586)">Large</text>
 </g>
 <g id="Guides">
  <g id="H-reference" style="fill:#27AAE1;stroke:none;" transform="matrix(1 0 0 1 339 696)">
   <path d="M0.993654 0L3.63775 0L29.3281-67.1323L30.0303-67.1323L30.0303-70.459L28.1226-70.459ZM11.6885-24.4799L46.9815-24.4799L46.2315-26.7285L12.4385-26.7285ZM55.1196 0L57.7637 0L30.6382-70.459L29.4326-70.459L29.4326-67.1323Z"/>
  </g>
  <line id="Baseline-S" style="fill:none;stroke:#27AAE1;opacity:1;stroke-width:0.5;" x1="263" x2="3036" y1="696" y2="696"/>
  <line id="Capline-S" style="fill:none;stroke:#27AAE1;opacity:1;stroke-width:0.5;" x1="263" x2="3036" y1="625.541" y2="625.541"/>
  <g id="H-reference" style="fill:#27AAE1;stroke:none;" transform="matrix(1 0 0 1 339 1126)">
   <path d="M0.993654 0L3.63775 0L29.3281-67.1323L30.0303-67.1323L30.0303-70.459L28.1226-70.459ZM11.6885-24.4799L46.9815-24.4799L46.2315-26.7285L12.4385-26.7285ZM55.1196 0L57.7637 0L30.6382-70.459L29.4326-70.459L29.4326-67.1323Z"/>
  </g>
  <line id="Baseline-M" style="fill:none;stroke:#27AAE1;opacity:1;stroke-width:0.5;" x1="263" x2="3036" y1="1126" y2="1126"/>
  <line id="Capline-M" style="fill:none;stroke:#27AAE1;opacity:1;stroke-width:0.5;" x1="263" x2="3036" y1="1055.54" y2="1055.54"/>
  <g id="H-reference" style="fill:#27AAE1;stroke:none;" transform="matrix(1 0 0 1 339 1556)">
   <path d="M0.993654 0L3.63775 0L29.3281-67.1323L30.0303-67.1323L30.0303-70.459L28.1226-70.459ZM11.6885-24.4799L46.9815-24.4799L46.2315-26.7285L12.4385-26.7285ZM55.1196 0L57.7637 0L30.6382-70.459L29.4326-70.459L29.4326-67.1323Z"/>
  </g>
  <line id="Baseline-L" style="fill:none;stroke:#27AAE1;opacity:1;stroke-width:0.5;" x1="263" x2="3036" y1="1556" y2="1556"/>
  <line id="Capline-L" style="fill:none;stroke:#27AAE1;opacity:1;stroke-width:0.5;" x1="263" x2="3036" y1="1485.54" y2="1485.54"/>
  <line id="right-margin" style="fill:none;stroke:#00AEEF;stroke-width:0.5;opacity:1.0;" x1="1508.37" x2="1508.37" y1="1030.79" y2="1150.12"/>
  <line id="left-margin" style="fill:none;stroke:#FF3B30;stroke-width:0.5;opacity:1.0;" x1="1391.32" x2="1391.32" y1="1030.79" y2="1150.12"/>
 </g>
 <g id="Symbols">
  <g id="Black-L" transform="matrix(1 0 0 1 2854.19 1556)">
   <path d="M79.1958-70.9417C75.9105-70.9417 73.1858-68.2158 73.1858-64.9109L73.1858-31.7243C73.1858-30.1964 73.7243-28.7232 74.843-27.1863L89.0715-8.48312C91.5233-5.25385 94.9927-4.70048 98.1123-6.81105C100.935-8.70236 101.177-12.441 98.9433-15.451L76.5925-45.7271L85.2266-19.2665L85.2266-64.9109C85.2266-68.2158 82.5007-70.9417 79.1958-70.9417ZM5.65569-49.7103C0.28545-49.7103-1.03168-44.7064 1.85748-40.993L18.3141-19.6205C20.2559-17.0325 23.8385-17.0325 25.8178-19.6205L42.2161-41.0126C45.026-44.7064 43.7673-49.7103 38.4763-49.7103ZM147.154-35.2697C147.154-72.7985 116.666-103.207 79.1958-103.207C41.6878-103.207 11.2796-72.8193 11.2588-35.1309C11.2796-29.5905 15.7946-25.0779 21.3326-25.0779C26.8902-25.0779 31.426-29.6113 31.426-35.1517C31.426-61.6809 52.7846-83.0592 79.1958-83.0592C105.607-83.0592 126.985-61.6809 126.985-35.2697C126.985-8.85853 105.607 12.5197 79.1958 12.5197C65.7762 12.5197 54.3974 7.22339 45.2511-1.93188C40.631-6.15886 34.6413-7.55957 30.0627-3.27957C25.9746 0.513563 25.6252 6.86699 30.7166 11.9557C43.4941 25.4212 61.3698 32.6673 79.1958 32.6673C116.666 32.6673 147.154 2.25907 147.154-35.2697Z" data-clipstroke-keyframes="0 0 0 2.7230244 2.7718012 0 0.16278455 2.8485734 2.6686952 0 0.4626099 2.0002723 2.56198 0 0.7309327 2.1519704 2.4552648 0 1 2.3031957 2.3483026"/>
  </g>
  <g id="Heavy-L" transform="matrix(1 0 0 1 2558.42 1556)">
   <path d="M78.2532-71.1654C75.1065-71.1654 72.5114-68.5647 72.5114-65.3934L72.5114-31.645C72.5114-30.117 73.0274-28.7111 74.1196-27.2091L88.5961-8.17506C90.9635-5.0617 94.3126-4.54366 97.276-6.56482C99.9648-8.38052 100.212-11.9403 98.0441-14.8482L76.1871-44.4694L84.0252-20.4145L84.0252-65.3934C84.0252-68.5647 81.4246-71.1654 78.2532-71.1654ZM5.10525-49.1362C-0.0100323-49.1362-1.27751-44.6193 1.49521-40.9887L17.3712-19.9571C19.3156-17.329 22.7371-17.329 24.6959-19.9571L40.5273-41.0133C43.2252-44.6193 42.0024-49.1362 36.9619-49.1362ZM145.278-35.2697C145.278-72.2795 115.218-102.264 78.2532-102.264C41.2736-102.264 11.289-72.3097 11.2588-35.1447C11.289-30.2699 15.2662-26.3039 20.1297-26.3039C25.0178-26.3039 29.0252-30.3001 29.0252-35.1748C29.0252-62.4921 51.0308-84.5223 78.2532-84.5223C105.476-84.5223 127.506-62.4921 127.506-35.2697C127.506-8.04727 105.476 13.9829 78.2532 13.9829C63.6854 13.9829 51.2031 7.78426 41.9476-2.45756C37.9898-6.25763 32.748-7.49895 28.6745-3.88179C24.9995-0.646178 24.5614 5.0068 28.9221 9.50318C41.4227 23.6658 59.5295 31.7248 78.2532 31.7248C115.218 31.7248 145.278 1.74009 145.278-35.2697Z" data-clipstroke-keyframes="0 0 0 2.7284815 2.7714424 0 0.16649196 2.8504763 2.6696534 0 0.4620704 2.0002513 2.5595515 0 0.7307654 2.150026 2.4494498 0 1 2.2993808 2.3391628"/>
  </g>
  <g id="Bold-L" transform="matrix(1 0 0 1 2262.89 1556)">
   <path d="M77.0704-71.3004C74.1375-71.3004 71.741-68.8907 71.741-65.933L71.741-31.5749C71.741-30.047 72.2263-28.7405 73.2728-27.3068L88.0269-7.90273C90.257-4.97255 93.4152-4.51545 96.1344-6.39913C98.6096-8.09277 98.8641-11.3776 96.8107-14.1178L75.6801-42.768L82.4377-21.9851L82.4377-65.933C82.4377-68.8907 80.0281-71.3004 77.0704-71.3004ZM4.40654-48.4217C-0.319159-48.4217-1.51771-44.5191 1.07926-41.0481L16.2628-20.4541C18.1701-17.8319 21.3471-17.8319 23.2456-20.4541L38.3999-41.0729C40.9297-44.5191 39.7604-48.4217 35.1019-48.4217ZM142.92-35.2697C142.92-71.6267 113.398-101.081 77.0704-101.081C40.7514-101.081 11.2968-71.6647 11.2588-35.1601C11.2968-31.1076 14.6056-27.8252 18.6316-27.8252C22.6824-27.8252 26.0292-31.1456 26.0292-35.1981C26.0292-63.4987 48.8414-86.3357 77.0704-86.3357C105.299-86.3357 128.136-63.4987 128.136-35.2697C128.136-7.04073 105.299 15.7963 77.0704 15.7963C61.0735 15.7963 47.231 8.47591 37.8373-3.15535C34.6792-6.40291 30.3596-7.44452 26.9236-4.6197C23.7856-2.05326 23.2697 2.7091 26.7461 6.46794C38.8861 21.4987 57.2996 30.5419 77.0704 30.5419C113.398 30.5419 142.92 1.08726 142.92-35.2697Z" data-clipstroke-keyframes="0 0 0 2.735378 2.7709007 0 0.17097159 2.8528616 2.6708453 0 0.46144637 2.0002337 2.5565186 0 0.7305628 2.1476054 2.4421918 0 1 2.2946105 2.327727"/>
  </g>
  <g id="Semibold-L" transform="matrix(1 0 0 1 1966.99 1556)">
   <path d="M76.2549-71.3935C73.4694-71.3935 71.2099-69.1155 71.2099-66.3051L71.2099-31.5267C71.2099-29.9987 71.674-28.7607 72.689-27.3742L87.6345-7.71498C89.77-4.91108 92.7966-4.496 95.3474-6.2849C97.6752-7.89439 97.935-10.9897 95.9605-13.6142L75.3306-41.5951L81.3433-23.0678L81.3433-66.3051C81.3433-69.1155 79.0653-71.3935 76.2549-71.3935ZM3.92485-47.9291C-0.532269-47.9291-1.68331-44.4501 0.792506-41.0891L15.4988-20.7967C17.3804-18.1786 20.3888-18.1786 22.2457-20.7967L36.9334-41.114C39.3472-44.4501 38.2148-47.9291 33.8196-47.9291ZM141.294-35.2697C141.294-71.1766 112.143-100.266 76.2549-100.266C40.3914-100.266 11.3022-71.22 11.2588-35.1707C11.3022-31.6851 14.1502-28.874 17.5988-28.874C21.0724-28.874 23.9637-31.7285 23.9637-35.2141C23.9637-64.1926 47.3321-87.5858 76.2549-87.5858C105.178-87.5858 128.571-64.1926 128.571-35.2697C128.571-6.34682 105.178 17.0464 76.2549 17.0464C59.2729 17.0464 44.4926 8.95273 35.0036-3.6364C32.3969-6.50307 28.7131-7.407 25.7165-5.12841C22.9488-3.02329 22.3792 1.12508 25.246 4.37547C37.1374 20.0047 55.7624 29.7265 76.2549 29.7265C112.143 29.7265 141.294 0.637211 141.294-35.2697Z" data-clipstroke-keyframes="0 0 0 2.7400966 2.7704697 0 0.17405981 2.8544474 2.6715608 0 0.46101618 2.000222 2.554263 0 0.7304231 2.1459959 2.4369655 0 1 2.291438 2.319566"/>
  </g>
  <g id="Medium-L" transform="matrix(1 0 0 1 1670.9 1556)">
   <path d="M75.6366-71.4641C72.9629-71.4641 70.8072-69.2859 70.8072-66.5872L70.8072-31.4901C70.8072-29.9621 71.2553-28.7761 72.2464-27.4253L87.3369-7.57262C89.4006-4.86448 92.3276-4.48125 94.7506-6.19829C96.9668-7.74398 97.2305-10.6955 95.3157-13.2323L75.0656-40.7057L80.5135-23.8888L80.5135-66.5872C80.5135-69.2859 78.3353-71.4641 75.6366-71.4641ZM3.55961-47.5556C-0.693858-47.5556-1.80887-44.3978 0.575077-41.1202L14.9194-21.0565C16.7816-18.4415 19.6622-18.4415 21.4875-21.0565L35.8213-41.1452C38.1473-44.3978 37.0428-47.5556 32.8473-47.5556ZM140.062-35.2697C140.062-70.8354 111.192-99.6475 75.6366-99.6475C40.1184-99.6475 11.3062-70.8828 11.2588-35.1788C11.3062-32.123 13.8048-29.6693 16.8157-29.6693C19.8516-29.6693 22.3976-32.1704 22.3976-35.2262C22.3976-64.7187 46.1876-88.5337 75.6366-88.5337C105.086-88.5337 128.901-64.7187 128.901-35.2697C128.901-5.82067 105.086 17.9943 75.6366 17.9943C57.9076 17.9943 42.4163 9.31427 32.855-4.00115C30.6664-6.57901 27.4646-7.37854 24.8012-5.51413C22.3143-3.7588 21.704-0.0759929 24.1085 2.78886C35.8115 18.8719 54.5967 29.1081 75.6366 29.1081C111.192 29.1081 140.062 0.295961 140.062-35.2697Z" data-clipstroke-keyframes="0 0 0 2.7436252 2.7702954 0 0.17640144 2.8557613 2.6719563 0 0.46069 2.000213 2.5524898 0 0.7303172 2.144664 2.4330232 0 1 2.2888095 2.3134804"/>
  </g>
  <g id="Regular-L" transform="matrix(1 0 0 1 1374.99 1556)">
   <path d="M74.8301-71.5561C72.3022-71.5561 70.2819-69.5082 70.2819-66.9552L70.2819-31.4423C70.2819-29.9143 70.7091-28.7961 71.6691-27.4919L86.9488-7.38694C88.9189-4.8037 91.7158-4.46201 93.9722-6.08532C96.0428-7.54778 96.3117-10.3119 94.4748-12.7343L74.7199-39.5457L79.4311-24.9597L79.4311-66.9552C79.4311-69.5082 77.3832-71.5561 74.8301-71.5561ZM3.08322-47.0685C-0.904626-47.0685-1.97264-44.3295 0.291473-41.1608L14.1637-21.3953C16.0006-18.7844 18.7145-18.7844 20.4986-21.3953L34.3709-41.1859C36.5822-44.3295 35.5142-47.0685 31.5791-47.0685ZM138.454-35.2697C138.454-70.3903 109.951-98.8411 74.8301-98.8411C39.7624-98.8411 11.3116-70.443 11.2588-35.1893C11.3116-32.6941 13.3544-30.7066 15.7943-30.7066C18.2592-30.7066 20.3549-32.7469 20.3549-35.242C20.3549-65.405 44.6948-89.7701 74.8301-89.7701C104.965-89.7701 129.331-65.405 129.331-35.2697C129.331-5.13439 104.965 19.2307 74.8301 19.2307C56.1268 19.2307 39.708 9.78585 30.0525-4.47692C28.4092-6.67807 25.8362-7.34143 23.6074-6.01725C21.4866-4.71818 20.8233-1.64261 22.6249 0.719383C34.082 17.3944 53.0764 28.3017 74.8301 28.3017C109.951 28.3017 138.454-0.149147 138.454-35.2697Z" data-clipstroke-keyframes="0 0 0 2.7481456 2.770029 0 0.17945573 2.8574667 2.6725204 0 0.46026453 2.0002015 2.5502138 0 0.730179 2.1429358 2.4279072 0 1 2.285397 2.3055592"/>
  </g>
  <g id="Light-L" transform="matrix(1 0 0 1 1079.2 1556)">
   <path d="M73.9141-70.7355C71.806-70.7355 70.1674-69.0501 70.1674-66.9552L70.1674-31.5759C70.1674-30.0479 70.5564-29.1015 71.4019-28.0072L86.6816-7.90224C88.3464-5.7007 90.7424-5.5117 92.5027-6.86781C94.1151-8.06308 94.4031-10.2928 92.8525-12.3335L74.3382-37.4463L77.6944-27.0018L77.6944-66.9552C77.6944-69.0501 76.009-70.7355 73.9141-70.7355ZM2.49158-46.5532C-0.751943-46.5532-1.72453-44.3104 0.215132-41.6188L13.782-22.2541C15.3326-20.0059 17.5885-20.0059 19.1054-22.2541L32.6723-41.6057C34.5783-44.3104 33.6057-46.5532 30.3958-46.5532ZM136.603-35.2697C136.603-69.875 108.519-97.925 73.9141-97.925C39.3425-97.925 11.2925-69.9086 11.2588-35.1893C11.2925-33.2476 12.8582-31.7753 14.7064-31.7753C16.5416-31.7753 18.141-33.2813 18.141-35.223C18.141-66.1112 43.0726-91.0297 73.9141-91.0297C104.756-91.0297 129.674-66.1112 129.674-35.2697C129.674-4.42824 104.756 20.4903 73.9141 20.4903C54.1801 20.4903 36.8643 10.2439 27.0943-5.25941C25.8709-6.92618 23.9086-7.43686 22.1951-6.4753C20.6087-5.50067 20.098-3.18851 21.4225-1.36091C32.517 15.9439 51.8549 27.3856 73.9141 27.3856C108.519 27.3856 136.603-0.66445 136.603-35.2697Z" data-clipstroke-keyframes="0 0 0 2.7534528 2.770259 0 0.1818254 2.8593 2.673307 0 0.46011811 2.0002358 2.5479417 0 0.7300688 2.1411712 2.4225764 0 1 2.2818084 2.297136"/>
  </g>
  <g id="Thin-L" transform="matrix(1 0 0 1 783.716 1556)">
   <path d="M72.7024-69.6501C71.1497-69.6501 70.0159-68.4443 70.0159-66.9552L70.0159-31.7526C70.0159-30.2246 70.3545-29.5053 71.0485-28.6888L86.3283-8.58377C87.5891-6.88707 89.4551-6.9 90.5591-7.90273C91.5657-8.74461 91.879-10.2675 90.707-11.8034L73.8334-34.6697L75.3974-29.7027L75.3974-66.9552C75.3974-68.4443 74.1916-69.6501 72.7024-69.6501ZM1.70908-45.8716C-0.550009-45.8716-1.39639-44.2852 0.114165-42.2246L13.2772-23.39C14.4492-21.6213 16.0992-21.6213 17.2628-23.39L30.4258-42.1611C31.9279-44.2852 31.0815-45.8716 28.8309-45.8716ZM134.155-35.2697C134.155-69.1934 106.626-96.7134 72.7024-96.7134C38.7872-96.7134 11.2672-69.2019 11.2588-35.1893C11.2672-33.9796 12.2019-33.1889 13.2676-33.1889C14.2698-33.1889 15.2129-33.988 15.2129-35.1977C15.2129-67.0451 40.927-92.6957 72.7024-92.6957C104.478-92.6957 130.128-67.0451 130.128-35.2697C130.128-3.49429 104.478 22.1563 72.7024 22.1563C51.6055 22.1563 33.1033 10.8497 23.1818-6.29433C22.5137-7.25432 21.3591-7.56307 20.3272-7.0811C19.4476-6.53559 19.1388-5.2331 19.8323-4.11227C30.4471 14.0255 50.2394 26.174 72.7024 26.174C106.626 26.174 134.155-1.34598 134.155-35.2697Z" data-clipstroke-keyframes="0 0 0 2.7607288 2.7705069 0 0.18495947 2.8617666 2.6744947 0 0.45992443 2.00028 2.5449991 0 0.729923 2.1387928 2.4155033 0 1 2.2769763 2.2859569"/>
  </g>
  <g id="Ultralight-L" transform="matrix(1 0 0 1 487.631 1556)">
   <path d="M72.0819-69.0941C70.8136-69.0941 69.9384-68.134 69.9384-66.9552L69.9384-31.8431C69.9384-30.3151 70.2511-29.7122 70.8675-29.0378L86.1473-8.93285C87.2013-7.49472 88.7957-7.61108 89.5635-8.4328C90.2599-9.09369 90.5861-10.2546 89.608-11.5319L73.5748-33.2475L74.2209-31.0861L74.2209-66.9552C74.2209-68.134 73.2608-69.0941 72.0819-69.0941ZM1.30829-45.5226C-0.446579-45.5226-1.22832-44.2722 0.0624496-42.5349L13.0186-23.9718C13.9967-22.4488 15.3364-22.4488 16.319-23.9718L29.2751-42.4455C30.5704-44.2722 29.7886-45.5226 28.0293-45.5226ZM132.9-35.2697C132.9-68.8443 105.657-96.0928 72.0819-96.0928C38.5027-96.0928 11.2543-68.8399 11.2588-35.1893C11.2543-34.3545 11.8658-33.9129 12.5307-33.9129C13.1062-33.9129 13.7132-34.35 13.7132-35.1848C13.7132-67.5235 39.8281-93.549 72.0819-93.549C104.336-93.549 130.361-67.5235 130.361-35.2697C130.361-3.01593 104.336 23.0096 72.0819 23.0096C50.2867 23.0096 31.1769 11.16 21.1779-6.82441C20.7942-7.42239 20.0533-7.62771 19.3704-7.39139C18.8529-7.06567 18.6475-6.28033 19.0177-5.5215C29.387 13.0429 49.412 25.5534 72.0819 25.5534C105.657 25.5534 132.9-1.69505 132.9-35.2697Z" data-clipstroke-keyframes="0 0 0 2.7642608 2.7705233 0 0.18656473 2.8629572 2.6748645 0 0.45982525 2.0003018 2.5432217 0 0.7298483 2.1376462 2.4115787 0 1 2.2746458 2.2799375"/>
  </g>
  <g id="Black-M" transform="matrix(1 0 0 1 2871.36 1126)">
   <path d="M62.0422-62.5939C59.4348-62.5939 57.2641-60.4235 57.2641-57.8103L57.2641-32.6002C57.2641-31.4164 57.6956-30.2405 58.5696-29.0484L69.3797-14.8425C71.3105-12.2928 74.0474-11.8544 76.5314-13.5302C78.7707-15.0242 78.9573-18.0019 77.2086-20.37L59.6361-44.1589L66.8258-22.1524L66.8258-57.8103C66.8258-60.4235 64.6554-62.5939 62.0422-62.5939ZM4.7746-46.872C0.495782-46.872-0.554396-42.6439 1.74006-39.7604L14.9474-22.9637C16.4107-21.0423 19.2627-21.0423 20.7776-22.9637L33.9278-39.7662C36.1597-42.6439 35.1666-46.872 30.9504-46.872ZM115.367-35.2606C115.367-64.712 91.4365-88.5802 62.0422-88.5802C32.5964-88.5802 8.72815-64.7175 8.72266-35.1412C8.72815-30.3518 12.6236-26.4558 17.4136-26.4558C22.2094-26.4558 26.1103-30.3573 26.1103-35.1467C26.1103-55.1209 42.1819-71.1983 62.0422-71.1983C81.9025-71.1983 97.9799-55.1209 97.9799-35.2606C97.9799-15.4003 81.9025 0.677054 62.0422 0.677054C52.4927 0.677054 44.504-2.75943 37.4963-9.08667C33.4046-12.656 28.2042-13.8575 24.2926-10.021C20.8426-6.64715 20.6689-1.22632 25.1768 3.15276C35.2649 13.0713 48.9618 18.0589 62.0422 18.0589C91.4365 18.0589 115.367-5.80932 115.367-35.2606Z" data-clipstroke-keyframes="0 0 0 2.717877 2.7722328 0 0.15908626 2.846787 2.6677418 0 0.46318272 2.000302 2.564253 0 0.73109907 2.153817 2.4607642 0 1 2.306793 2.35692"/>
  </g>
  <g id="Heavy-M" transform="matrix(1 0 0 1 2575.48 1126)">
   <path d="M61.2053-62.8882C58.6946-62.8882 56.6155-60.8068 56.6155-58.2819L56.6155-32.5103C56.6155-31.3265 57.0284-30.2006 57.887-29.0231L68.9397-14.4938C70.8161-12.0222 73.4724-11.6042 75.8494-13.2173C78.0004-14.6621 78.1896-17.5143 76.4792-19.8177L59.275-43.1231L65.8116-23.0862L65.8116-58.2819C65.8116-60.8068 63.7302-62.8882 61.2053-62.8882ZM4.29109-46.3583C0.192843-46.3583-0.817601-42.5605 1.39297-39.714L14.0608-23.2135C15.5531-21.2194 18.2899-21.2194 19.8094-23.2135L32.4336-39.7281C34.5842-42.5605 33.6173-46.3583 29.5791-46.3583ZM113.704-35.2606C113.704-64.2522 90.1532-87.7433 61.2053-87.7433C32.2302-87.7433 8.73907-64.2686 8.72266-35.1547C8.73907-30.9649 12.1529-27.5557 16.3381-27.5557C20.5375-27.5557 23.9677-30.9813 23.9677-35.1711C23.9677-55.8489 40.6171-72.5124 61.2053-72.5124C81.7936-72.5124 98.4571-55.8489 98.4571-35.2606C98.4571-14.6724 81.7936 1.99116 61.2053 1.99116C50.6284 1.99116 41.6436-2.2534 34.5398-9.52837C31.0568-12.7297 26.5311-13.7894 23.0658-10.5675C19.9704-7.70869 19.6959-2.90217 23.5334 0.947177C33.3843 11.4891 47.2755 17.222 61.2053 17.222C90.1532 17.222 113.704-6.26912 113.704-35.2606Z" data-clipstroke-keyframes="0 0 0 2.724154 2.771765 0 0.16348211 2.8489592 2.6689026 0 0.46251944 2.000271 2.5615 0 0.7309011 2.1515822 2.4540973 0 1 2.3024275 2.346448"/>
  </g>
  <g id="Bold-M" transform="matrix(1 0 0 1 2279.69 1126)">
   <path d="M60.2692-63.2174C57.8666-63.2174 55.8899-61.2356 55.8899-58.8095L55.8899-32.4097C55.8899-31.2259 56.282-30.1559 57.1234-28.9948L68.4475-14.1038C70.263-11.7195 72.8291-11.3244 75.0865-12.8673C77.1388-14.2569 77.3308-16.9688 75.6633-19.1999L58.8711-41.9643L64.6771-24.1308L64.6771-58.8095C64.6771-61.2356 62.6952-63.2174 60.2692-63.2174ZM3.75022-45.7836C-0.146037-45.7836-1.11203-42.4672 1.00469-39.6621L13.0691-23.4929C14.5938-21.4175 17.2016-21.4175 18.7263-23.4929L30.7622-39.6855C32.8217-42.4672 31.8843-45.7836 28.0452-45.7836ZM111.844-35.2606C111.844-63.7378 88.7178-86.8071 60.2692-86.8071C31.8206-86.8071 8.75128-63.7664 8.72266-35.1698C8.75128-31.6508 11.6263-28.7861 15.135-28.7861C18.6672-28.7861 21.5708-31.6794 21.5708-35.1984C21.5708-56.6631 38.8667-73.9825 60.2692-73.9825C81.6717-73.9825 98.991-56.6631 98.991-35.2606C98.991-13.8582 81.6717 3.46117 60.2692 3.46117C48.5429 3.46117 38.444-1.68733 31.2325-10.0225C28.4304-12.8121 24.6595-13.7133 21.6935-11.1788C18.9948-8.89617 18.6074-4.77686 21.6952-1.52009C31.2807 9.71913 45.3892 16.2859 60.2692 16.2859C88.7178 16.2859 111.844-6.78347 111.844-35.2606Z" data-clipstroke-keyframes="0 0 0 2.7310476 2.771117 0 0.1683995 2.8514404 2.6700077 0 0.46177748 2.000237 2.5582488 0 0.7306796 2.149033 2.4464898 0 1 2.2974405 2.3345895"/>
  </g>
  <g id="Semibold-M" transform="matrix(1 0 0 1 1983.62 1126)">
   <path d="M59.6238-63.4444C57.2957-63.4444 55.3896-61.5312 55.3896-59.1732L55.3896-32.3404C55.3896-31.1566 55.7674-30.1251 56.597-28.9753L68.1081-13.8349C69.8817-11.5108 72.3856-11.1315 74.5606-12.626C76.5447-13.9777 76.7387-16.5927 75.1008-18.774L58.5927-41.1655L63.8949-24.851L63.8949-59.1732C63.8949-61.5312 61.9817-63.4444 59.6238-63.4444ZM3.37735-45.3875C-0.37966-45.3875-1.31501-42.4029 0.737016-39.6262L12.3854-23.6856C13.9325-21.5541 16.4514-21.5541 17.9797-23.6856L29.6099-39.6562C31.6067-42.4029 30.6895-45.3875 26.9877-45.3875ZM110.562-35.2606C110.562-63.3832 87.7282-86.1618 59.6238-86.1618C31.5382-86.1618 8.7597-63.4203 8.72266-35.1802C8.7597-32.1237 11.2633-29.6343 14.3056-29.6343C17.3778-29.6343 19.9185-32.1607 19.9185-35.2172C19.9185-57.2245 37.6599-74.9959 59.6238-74.9959C81.5876-74.9959 99.359-57.2245 99.359-35.2606C99.359-13.2968 81.5876 4.47459 59.6238 4.47459C47.1052 4.47459 36.2381-1.29709 28.9525-10.3631C26.6198-12.8689 23.3692-13.6608 20.7474-11.6002C18.3221-9.71481 17.857-6.06925 20.4279-3.221C29.8305 8.49894 44.0887 15.6405 59.6238 15.6405C87.7282 15.6405 110.562-7.13807 110.562-35.2606Z" data-clipstroke-keyframes="0 0 0 2.7359805 2.7706578 0 0.17178953 2.853127 2.670898 0 0.46126598 2.0002143 2.5561087 0 0.73052686 2.1473007 2.4413197 0 1 2.2940497 2.326452"/>
  </g>
  <g id="Medium-M" transform="matrix(1 0 0 1 1687.4 1126)">
   <path d="M59.1344-63.6165C56.8629-63.6165 55.0103-61.7553 55.0103-59.449L55.0103-32.2878C55.0103-31.104 55.3772-30.1017 56.1979-28.9605L67.8508-13.631C69.5926-11.3526 72.0493-10.9853 74.1618-12.443C76.0943-13.7659 76.2898-16.3076 74.6743-18.4511L58.3815-40.5598L63.3019-25.3971L63.3019-59.449C63.3019-61.7553 61.4407-63.6165 59.1344-63.6165ZM3.09462-45.0871C-0.556802-45.0871-1.46892-42.3541 0.534053-39.5991L11.8669-23.8316C13.4311-21.6577 15.8826-21.6577 17.4135-23.8316L28.7361-39.6339C30.6854-42.3541 29.7836-45.0871 26.1858-45.0871ZM109.59-35.2606C109.59-63.1144 86.9778-85.6724 59.1344-85.6724C31.3241-85.6724 8.76608-63.1578 8.72266-35.1881C8.76608-32.4822 10.988-30.2774 13.6767-30.2774C16.4002-30.2774 18.6656-32.5256 18.6656-35.2315C18.6656-57.6501 36.7449-75.7643 59.1344-75.7643C81.5239-75.7643 99.6381-57.6501 99.6381-35.2606C99.6381-12.8711 81.5239 5.24301 59.1344 5.24301C46.015 5.24301 34.5656-1.00119 27.2237-10.6214C25.247-12.9119 22.3909-13.621 20.0301-11.9197C17.8121-10.3355 17.2881-7.0492 19.467-4.51071C28.7308 7.57375 43.1027 15.1511 59.1344 15.1511C86.9778 15.1511 109.59-7.40694 109.59-35.2606Z" data-clipstroke-keyframes="0 0 0 2.7396243 2.7702003 0 0.17435998 2.8543527 2.6714292 0 0.46087813 2.0001974 2.554294 0 0.7304111 2.1460414 2.437159 0 1 2.2915847 2.319989"/>
  </g>
  <g id="Regular-M" transform="matrix(1 0 0 1 1391.32 1126)">
   <path d="M58.4961-63.8409C56.2983-63.8409 54.5156-62.0477 54.5156-59.8087L54.5156-32.2193C54.5156-31.0355 54.8683-30.0713 55.6773-28.9412L67.5152-13.3651C69.2155-11.1462 71.6107-10.7945 73.6417-12.2044C75.5068-13.4897 75.7043-15.9356 74.118-18.0299L58.1062-39.7698L62.5283-26.1093L62.5283-59.8087C62.5283-62.0477 60.7351-63.8409 58.4961-63.8409ZM2.72585-44.6953C-0.787857-44.6953-1.66967-42.2905 0.269319-39.5637L11.1907-24.0222C12.777-21.7927 15.1406-21.7927 16.6751-24.0222L27.5965-39.6049C29.4837-42.2905 28.6019-44.6953 25.14-44.6953ZM108.321-35.2606C108.321-62.7637 85.9991-85.0341 58.4961-85.0341C31.0448-85.0341 8.77441-62.8154 8.72266-35.1983C8.77441-32.9498 10.629-31.1163 12.8564-31.1163C15.125-31.1163 17.0314-33.0016 17.0314-35.2501C17.0314-58.2053 35.5514-76.7666 58.4961-76.7666C81.4408-76.7666 100.002-58.2053 100.002-35.2606C100.002-12.316 81.4408 6.24529 58.4961 6.24529C44.5931 6.24529 32.384-0.615232 24.9687-10.9583C23.4563-12.9681 21.1148-13.5691 19.0944-12.3365C17.1469-11.1452 16.5459-8.32739 18.2136-6.19293C27.2965 6.36697 41.8165 14.5128 58.4961 14.5128C85.9991 14.5128 108.321-7.75763 108.321-35.2606Z" data-clipstroke-keyframes="0 0 0 2.744246 2.769851 0 0.17771275 2.8561273 2.6719193 0 0.46037224 2.0001755 2.5518594 0 0.7302601 2.1442232 2.4317997 0 1 2.2880175 2.311752"/>
  </g>
  <g id="Light-M" transform="matrix(1 0 0 1 1095.44 1126)">
   <path d="M57.6748-63.1052C55.8534-63.1052 54.4129-61.637 54.4129-59.8087L54.4129-32.339C54.4129-31.1553 54.7314-30.345 55.4377-29.4032L67.2756-13.827C68.7022-11.9504 70.7381-11.7356 72.3241-12.9059C73.7786-13.9517 73.9932-15.9185 72.6636-17.6706L57.7639-37.8876L60.9712-27.9402L60.9712-59.8087C60.9712-61.637 59.5031-63.1052 57.6748-63.1052ZM2.19541-44.2333C-0.65097-44.2333-1.44723-42.2734 0.200876-39.9743L10.8485-24.7922C12.1781-22.8878 14.131-22.8878 15.426-24.7922L26.0736-39.9813C27.6871-42.2734 26.8908-44.2333 24.0791-44.2333ZM106.662-35.2606C106.662-62.3017 84.7158-84.2128 57.6748-84.2128C30.6684-84.2128 8.7573-62.3363 8.72266-35.1983C8.7573-33.446 10.1841-32.0746 11.8811-32.0746C13.585-32.0746 15.0465-33.4807 15.0465-35.233C15.0465-58.8384 34.097-77.8959 57.6748-77.8959C81.2526-77.8959 100.31-58.8384 100.31-35.2606C100.31-11.6829 81.2526 7.37462 57.6748 7.37462C42.8478 7.37462 29.8344-0.20457 22.3165-11.6598C21.1805-13.1906 19.3866-13.6546 17.8282-12.7472C16.3598-11.8467 15.8957-9.71337 17.1356-8.05803C25.8934 5.06654 40.7214 13.6915 57.6748 13.6915C84.7158 13.6915 106.662-8.21963 106.662-35.2606Z" data-clipstroke-keyframes="0 0 0 2.750383 2.7701278 0 0.180455 2.858238 2.6728563 0 0.46020278 2.000216 2.5492604 0 0.7301325 2.1421936 2.4256647 0 1 2.2838874 2.3020074"/>
  </g>
  <g id="Thin-M" transform="matrix(1 0 0 1 799.828 1126)">
   <path d="M56.5885-62.132C55.265-62.132 54.2772-61.0939 54.2772-59.8087L54.2772-32.4975C54.2772-31.3137 54.5504-30.7071 55.1209-30.0142L66.9588-14.4381C68.0233-13.014 69.5839-12.9803 70.5816-13.8338C71.4929-14.5627 71.7301-15.8959 70.74-17.1953L57.3113-35.3982L58.9119-30.3617L58.9119-59.8087C58.9119-61.0939 57.8737-62.132 56.5885-62.132ZM1.49386-43.6223C-0.469925-43.6223-1.15303-42.2508 0.110353-40.5175L10.3959-25.8105C11.386-24.3362 12.7958-24.3362 13.774-25.8105L24.0595-40.4792C25.3109-42.2508 24.6278-43.6223 22.676-43.6223ZM104.466-35.2606C104.466-61.6906 83.0185-83.1265 56.5885-83.1265C30.1705-83.1265 8.73467-61.7026 8.72266-35.1983C8.73467-34.1023 9.59571-33.3419 10.5911-33.3419C11.5483-33.3419 12.4213-34.1143 12.4213-35.2104C12.4213-59.6758 32.1734-79.3895 56.5885-79.3895C81.0036-79.3895 100.717-59.6758 100.717-35.2606C100.717-10.8455 81.0036 8.86824 56.5885 8.86824C40.5395 8.86824 26.4625 0.338565 18.8088-12.5877C18.1707-13.4848 17.1009-13.7678 16.1535-13.2903C15.3188-12.7746 15.0358-11.5465 15.7099-10.5248C24.0377 3.34661 39.2731 12.6052 56.5885 12.6052C83.0185 12.6052 104.466-8.83065 104.466-35.2606Z" data-clipstroke-keyframes="0 0 0 2.7585392 2.7704973 0 0.18408182 2.8611197 2.674027 0 0.45997867 2.0002677 2.5457044 0 0.72996384 2.139415 2.417382 0 1 2.2782416 2.288994"/>
  </g>
  <g id="Ultralight-M" transform="matrix(1 0 0 1 503.679 1126)">
   <path d="M56.0321-61.6336C54.9637-61.6336 54.2076-60.8157 54.2076-59.8087L54.2076-32.5786C54.2076-31.3948 54.4577-30.8926 54.9586-30.3272L66.7965-14.751C67.6755-13.5588 68.9928-13.6178 69.689-14.309C70.3222-14.8756 70.571-15.8843 69.7547-16.9519L57.0795-34.1231L57.857-31.6019L57.857-59.8087C57.857-60.8157 57.0391-61.6336 56.0321-61.6336ZM1.13453-43.3093C-0.377195-43.3093-1.00235-42.2392 0.063988-40.7957L10.1641-26.3321C10.9804-25.078 12.1119-25.078 12.9278-26.3321L23.0279-40.7342C24.0938-42.2392 23.4686-43.3093 21.9573-43.3093ZM103.342-35.2606C103.342-61.3777 82.1491-82.5701 56.0321-82.5701C29.9155-82.5701 8.72308-61.3781 8.72266-35.1983C8.72308-34.4385 9.29434-33.991 9.93043-33.991C10.5051-33.991 11.0767-34.4389 11.0767-35.1988C11.0767-60.1046 31.1881-80.1545 56.0321-80.1545C80.8761-80.1545 100.926-60.1046 100.926-35.2606C100.926-10.4166 80.8761 9.63326 56.0321 9.63326C39.3572 9.63326 24.7354 0.616755 17.0121-13.0629C16.629-13.6354 15.9302-13.8257 15.2958-13.5685C14.7856-13.2498 14.5953-12.4853 14.9796-11.7882C23.0872 2.46567 38.5312 12.0488 56.0321 12.0488C82.1491 12.0488 103.342-9.14362 103.342-35.2606Z" data-clipstroke-keyframes="0 0 0 2.7629256 2.7704241 0 0.18593948 2.8624368 2.6747274 0 0.45986387 2.0002935 2.543868 0 0.7298774 2.13815 2.4130085 0 1 2.2756677 2.2821324"/>
  </g>
  <g id="Black-S" transform="matrix(1 0 0 1 2884.57 696)">
   <path d="M48.8281-56.543C46.7773-56.543 45.0684-54.834 45.0684-52.7832L45.0684-33.2031C45.0684-32.2754 45.4102-31.3477 46.0938-30.4199L54.4922-19.3848C56.0059-17.3828 58.1543-17.041 60.1074-18.3594C61.8652-19.5312 62.0117-21.875 60.6445-23.7305L46.8262-42.4316L52.5879-24.8047L52.5879-52.7832C52.5879-54.834 50.8789-56.543 48.8281-56.543ZM3.85742-44.4824C0.488281-44.4824-0.341797-41.0645 1.46484-38.8184L11.9629-25.5859C13.0859-24.1211 15.332-24.1211 16.5039-25.5859L26.9531-38.8184C28.7109-41.0645 27.9297-44.4824 24.6094-44.4824ZM90.8203-35.2539C90.8203-58.4473 71.9727-77.2461 48.8281-77.2461C25.6348-77.2461 6.83594-58.4473 6.83594-35.1562C6.83594-31.25 10.0098-28.0762 13.916-28.0762C17.8223-28.0762 20.9961-31.25 20.9961-35.1562C20.9961-50.6348 33.4473-63.0859 48.8281-63.0859C64.209-63.0859 76.6602-50.6348 76.6602-35.2539C76.6602-19.873 64.209-7.42188 48.8281-7.42188C41.6016-7.42188 35.5957-9.91211 30.127-14.6484C26.7578-17.5293 22.5098-18.5059 19.3359-15.332C16.5527-12.5488 16.4551-8.1543 20.166-4.58984C28.125 3.02734 38.8184 6.73828 48.8281 6.73828C71.9727 6.73828 90.8203-12.0605 90.8203-35.2539Z" data-clipstroke-keyframes="0 0 0 2.7158985 2.7724352 0 0.1575909 2.846102 2.6673617 0 0.4634265 2.0003176 2.5651245 0 0.7311661 2.1545327 2.462887 0 1 2.308178 2.3602319"/>
  </g>
  <g id="Heavy-S" transform="matrix(1 0 0 1 2588.47 696)">
   <path d="M48.2173-56.8887C46.2011-56.8887 44.5267-55.2143 44.5267-53.1866L44.5267-33.1109C44.5267-32.1832 44.857-31.2785 45.5406-30.3393L54.1465-19.0275C55.6486-17.0486 57.774-16.7068 59.6925-18.0021C61.4273-19.1625 61.5738-21.4601 60.2066-23.3041L46.5611-41.7863L51.9195-25.3694L51.9195-53.1866C51.9195-55.2143 50.2451-56.8887 48.2173-56.8887ZM3.51169-44.1021C0.211694-44.1021-0.595335-40.9953 1.17673-38.7262L11.2484-25.7012C12.429-24.1326 14.629-24.1326 15.8355-25.7012L25.8698-38.7377C27.5931-40.9953 26.8233-44.1021 23.5722-44.1021ZM89.6102-35.2539C89.6102-58.1131 71.0392-76.6353 48.2173-76.6353C25.3697-76.6353 6.84746-58.1246 6.83594-35.1678C6.84746-31.711 9.66403-28.8944 13.1208-28.8944C16.5891-28.8944 19.4172-31.7225 19.4172-35.1793C19.4172-51.1764 32.2948-64.0655 48.2173-64.0655C64.1398-64.0655 77.0289-51.1764 77.0289-35.2539C77.0289-19.3314 64.1398-6.4423 48.2173-6.4423C40.2302-6.4423 33.4752-9.5318 27.9373-14.9365C25.0407-17.5639 21.2997-18.4367 18.4486-15.7469C15.9074-13.3671 15.706-9.41046 18.8983-6.23784C26.696 1.84032 37.5161 6.12748 48.2173 6.12748C71.0392 6.12748 89.6102-12.3948 89.6102-35.2539Z" data-clipstroke-keyframes="0 0 0 2.721759 2.7718735 0 0.16194098 2.8481374 2.668463 0 0.4627303 2.0002763 2.5625296 0 0.73097086 2.1524148 2.456596 0 1 2.304069 2.350403"/>
  </g>
  <g id="Bold-S" transform="matrix(1 0 0 1 2292.43 696)">
   <path d="M47.5342-57.2754C45.5566-57.2754 43.9209-55.6396 43.9209-53.6377L43.9209-33.0078C43.9209-32.0801 44.2383-31.2012 44.9219-30.249L53.7598-18.6279C55.249-16.6748 57.3486-16.333 59.2285-17.6025C60.9375-18.75 61.084-20.9961 59.7168-22.8271L46.2646-41.0645L51.1719-26.001L51.1719-53.6377C51.1719-55.6396 49.5361-57.2754 47.5342-57.2754ZM3.125-43.6768C-0.0976562-43.6768-0.878906-40.918 0.854492-38.623L10.4492-25.8301C11.6943-24.1455 13.8428-24.1455 15.0879-25.8301L24.6582-38.6475C26.3428-40.918 25.5859-43.6768 22.4121-43.6768ZM88.2568-35.2539C88.2568-57.7393 69.9951-75.9521 47.5342-75.9521C25.0732-75.9521 6.86035-57.7637 6.83594-35.1807C6.86035-32.2266 9.27734-29.8096 12.2314-29.8096C15.21-29.8096 17.6514-32.251 17.6514-35.2051C17.6514-51.7822 31.0059-65.1611 47.5342-65.1611C64.0625-65.1611 77.4414-51.7822 77.4414-35.2539C77.4414-18.7256 64.0625-5.34668 47.5342-5.34668C38.6963-5.34668 31.1035-9.10645 25.4883-15.2588C23.1201-17.6025 19.9463-18.3594 17.4561-16.2109C15.1855-14.2822 14.8682-10.8154 17.4805-8.08105C25.0977 0.512695 36.0596 5.44434 47.5342 5.44434C69.9951 5.44434 88.2568-12.7686 88.2568-35.2539Z" data-clipstroke-keyframes="0 0 0 2.728264 2.7712193 0 0.16680636 2.8504453 2.6695836 0 0.4619516 2.0002315 2.559527 0 0.73075247 2.150017 2.4494703 0 1 2.2994094 2.3393028"/>
  </g>
  <g id="Semibold-S" transform="matrix(1 0 0 1 1996.19 696)">
   <path d="M47.0632-57.542C45.1123-57.542 43.5032-55.9329 43.5032-53.9487L43.5032-32.9367C43.5032-32.009 43.8117-31.1479 44.4953-30.1868L53.4932-18.3524C54.9735-16.4171 57.0554-16.0753 58.9086-17.3271C60.5998-18.4656 60.7463-20.6762 59.3791-22.4983L46.0603-40.5668L50.6564-26.4364L50.6564-53.9487C50.6564-55.9329 49.0474-57.542 47.0632-57.542ZM2.8584-43.3835C-0.310937-43.3835-1.07441-40.8646 0.632324-38.552L9.89824-25.9189C11.1878-24.1544 13.3007-24.1544 14.5725-25.9189L23.8229-38.5853C25.4808-40.8646 24.7328-43.3835 21.6123-43.3835ZM87.3237-35.2539C87.3237-57.4815 69.2753-75.4812 47.0632-75.4812C24.8688-75.4812 6.86924-57.5148 6.83594-35.1896C6.86924-32.582 9.01074-30.4405 11.6183-30.4405C14.2591-30.4405 16.4339-32.6153 16.4339-35.2229C16.4339-52.1999 30.1172-65.9165 47.0632-65.9165C64.0092-65.9165 77.7258-52.1999 77.7258-35.2539C77.7258-18.3079 64.0092-4.59131 47.0632-4.59131C37.6388-4.59131 29.4684-8.81318 23.7998-15.481C21.796-17.6292 19.0132-18.3061 16.7718-16.5309C14.6879-14.9132 14.2905-11.7841 16.5029-9.35186C23.9957-0.402637 35.0554 4.97334 47.0632 4.97334C69.2753 4.97334 87.3237-13.0263 87.3237-35.2539Z" data-clipstroke-keyframes="0 0 0 2.7327926 2.7706032 0 0.17016079 2.8520381 2.6703641 0 0.46141475 2.0002012 2.5574598 0 0.73060185 2.1483636 2.4445553 0 1 2.2961926 2.3316247"/>
  </g>
  <g id="Medium-S" transform="matrix(1 0 0 1 1699.83 696)">
   <path d="M46.7061-57.7441C44.7754-57.7441 43.1865-56.1553 43.1865-54.1846L43.1865-32.8828C43.1865-31.9551 43.4883-31.1074 44.1719-30.1396L53.291-18.1436C54.7646-16.2217 56.833-15.8799 58.666-17.1182C60.3438-18.25 60.4902-20.4336 59.123-22.249L45.9053-40.1895L50.2656-26.7666L50.2656-54.1846C50.2656-56.1553 48.6768-57.7441 46.7061-57.7441ZM2.65625-43.1611C-0.472656-43.1611-1.22266-40.8242 0.463867-38.498L9.48047-25.9863C10.8037-24.1611 12.8896-24.1611 14.1816-25.9863L23.1895-38.5381C24.8271-40.8242 24.0859-43.1611 21.0059-43.1611ZM86.6162-35.2539C86.6162-57.2861 68.7295-75.124 46.7061-75.124C24.7139-75.124 6.87598-57.3262 6.83594-35.1963C6.87598-32.8516 8.80859-30.9189 11.1533-30.9189C13.5381-30.9189 15.5107-32.8916 15.5107-35.2363C15.5107-52.5166 29.4434-66.4893 46.7061-66.4893C63.9688-66.4893 77.9414-52.5166 77.9414-35.2539C77.9414-17.9912 63.9688-4.01855 46.7061-4.01855C36.8369-4.01855 28.2285-8.59082 22.5195-15.6494C20.792-17.6494 18.3057-18.2656 16.2529-16.7734C14.3105-15.3916 13.8525-12.5186 15.7617-10.3154C23.1602-1.09668 34.2939 4.61621 46.7061 4.61621C68.7295 4.61621 86.6162-13.2217 86.6162-35.2539Z" data-clipstroke-keyframes="0 0 0 2.7361002 2.7702487 0 0.17270425 2.8532767 2.6708255 0 0.46100768 2.0001786 2.5557818 0 0.7304877 2.14708 2.4407384 0 1 2.2936924 2.3257236"/>
  </g>
  <g id="Regular-S" transform="matrix(1 0 0 1 1403.58 696)">
   <path d="M46.2402-58.0078C44.3359-58.0078 42.7734-56.4453 42.7734-54.4922L42.7734-32.8125C42.7734-31.8848 43.0664-31.0547 43.75-30.0781L53.0273-17.8711C54.4922-15.9668 56.543-15.625 58.3496-16.8457C60.0098-17.9688 60.1562-20.1172 58.7891-21.9238L45.7031-39.6973L49.7559-27.1973L49.7559-54.4922C49.7559-56.4453 48.1934-58.0078 46.2402-58.0078ZM2.39258-42.8711C-0.683594-42.8711-1.41602-40.7715 0.244141-38.4277L8.93555-26.0742C10.3027-24.1699 12.3535-24.1699 13.6719-26.0742L22.3633-38.4766C23.9746-40.7715 23.2422-42.8711 20.2148-42.8711ZM85.6934-35.2539C85.6934-57.0312 68.0176-74.6582 46.2402-74.6582C24.5117-74.6582 6.88477-57.0801 6.83594-35.2051C6.88477-33.2031 8.54492-31.543 10.5469-31.543C12.5977-31.543 14.3066-33.252 14.3066-35.2539C14.3066-52.9297 28.5645-67.2363 46.2402-67.2363C63.916-67.2363 78.2227-52.9297 78.2227-35.2539C78.2227-17.5781 63.916-3.27148 46.2402-3.27148C35.791-3.27148 26.6113-8.30078 20.8496-15.8691C19.4824-17.6758 17.3828-18.2129 15.5762-17.0898C13.8184-16.0156 13.2812-13.4766 14.7949-11.5723C22.0703-2.00195 33.3008 4.15039 46.2402 4.15039C68.0176 4.15039 85.6934-13.4766 85.6934-35.2539Z" data-clipstroke-keyframes="0 0 0 2.740467 2.7696705 0 0.17602181 2.8548355 2.6713161 0 0.46047673 2.0001497 2.553434 0 0.73033875 2.1454635 2.4355516 0 1 2.2905436 2.317757"/>
  </g>
  <g id="Light-S" transform="matrix(1 0 0 1 1107.6 696)">
   <path d="M45.5137-57.3569C43.9424-57.3569 42.6826-56.082 42.6826-54.4922L42.6826-32.9185C42.6826-31.9907 42.9453-31.2969 43.5381-30.4868L52.8154-18.2798C54.0381-16.6782 55.771-16.4575 57.1841-17.4663C58.481-18.3774 58.6426-20.1021 57.5025-21.606L45.4004-38.0322L48.3784-28.8169L48.3784-54.4922C48.3784-56.082 47.1035-57.3569 45.5137-57.3569ZM1.92334-42.4624C-0.562501-42.4624-1.21924-40.7563 0.183594-38.791L8.63281-26.7554C9.77295-25.1387 11.4605-25.1387 12.5669-26.7554L21.0161-38.8096C22.3853-40.7563 21.7285-42.4624 19.2764-42.4624ZM84.2251-35.2539C84.2251-56.6226 66.8823-73.9316 45.5137-73.9316C24.1787-73.9316 6.86963-56.6563 6.83594-35.2051C6.86963-33.6421 8.15137-32.3906 9.68409-32.3906C11.2354-32.3906 12.5508-33.6758 12.5508-35.2388C12.5508-53.4897 27.2778-68.2353 45.5137-68.2353C63.7495-68.2353 78.4951-53.4897 78.4951-35.2539C78.4951-17.0181 63.7495-2.27247 45.5137-2.27247C34.2471-2.27247 24.356-7.9375 18.5034-16.4897C17.4693-17.8726 15.854-18.2886 14.4561-17.4531C13.1221-16.6362 12.7061-14.7026 13.8413-13.2222C20.8291-3.15233 32.332 3.42383 45.5137 3.42383C66.8823 3.42383 84.2251-13.8853 84.2251-35.2539Z" data-clipstroke-keyframes="0 0 0 2.747388 2.7699952 0 0.17911717 2.8572059 2.6724052 0 0.46028545 2.0001965 2.5505352 0 0.73019475 2.1431866 2.4286652 0 1 2.2859073 2.3067622"/>
  </g>
  <g id="Thin-S" transform="matrix(1 0 0 1 811.863 696)">
   <path d="M44.5527-56.4961C43.4219-56.4961 42.5625-55.6016 42.5625-54.4922L42.5625-33.0586C42.5625-32.1309 42.7852-31.6172 43.2578-31.0273L52.5352-18.8203C53.4375-17.6191 54.75-17.5586 55.6426-18.2871C56.459-18.918 56.6407-20.082 55.8008-21.1856L45-35.8301L46.5567-30.959L46.5567-54.4922C46.5567-55.6016 45.6621-56.4961 44.5527-56.4961ZM1.30274-41.9219C-0.402346-41.9219-0.958988-40.7363 0.103517-39.2715L8.23243-27.6562C9.07228-26.4199 10.2793-26.4199 11.1055-27.6562L19.2344-39.25C20.2832-40.7363 19.7266-41.9219 18.0352-41.9219ZM82.2832-35.2539C82.2832-56.082 65.3809-72.9707 44.5527-72.9707C23.7383-72.9707 6.84961-56.0957 6.83594-35.2051C6.84961-34.2226 7.63087-33.5117 8.54298-33.5117C9.43362-33.5117 10.2285-34.2363 10.2285-35.2188C10.2285-54.2305 25.5762-69.5566 44.5527-69.5566C63.5293-69.5566 78.8555-54.2305 78.8555-35.2539C78.8555-16.2774 63.5293-0.95119 44.5527-0.95119C32.2051-0.95119 21.3731-7.45704 15.4004-17.3105C14.8067-18.1328 13.8321-18.3887 12.9746-17.9336C12.2012-17.457 11.9453-16.3242 12.5801-15.4043C19.1875-4.67381 31.0508 2.4629 44.5527 2.4629C65.3809 2.4629 82.2832-14.4258 82.2832-35.2539Z" data-clipstroke-keyframes="0 0 0 2.7565868 2.7704196 0 0.18321103 2.8604398 2.6737535 0 0.4600325 2.0002553 2.5465572 0 0.7300043 2.1400707 2.4193609 0 1 2.2795734 2.2920904"/>
  </g>
  <g id="Ultralight-S" transform="matrix(1 0 0 1 515.649 696)">
   <path d="M44.0606-56.0552C43.1553-56.0552 42.501-55.3555 42.501-54.4922L42.501-33.1304C42.501-32.2026 42.7031-31.7812 43.1143-31.3042L52.3916-19.0972C53.1299-18.1011 54.2271-18.1225 54.8531-18.7075C55.4234-19.1948 55.6153-20.0718 54.9292-20.9702L44.7949-34.7022L45.6236-32.0561L45.6236-54.4922C45.6236-55.3555 44.9239-56.0552 44.0606-56.0552ZM0.984874-41.645C-0.320315-41.645-0.825688-40.7261 0.0625014-39.5176L8.02735-28.1177C8.71339-27.0761 9.67434-27.0761 10.357-28.1177L18.3218-39.4756C19.2066-40.7261 18.7012-41.645 17.3994-41.645ZM81.2886-35.2539C81.2886-55.8052 64.6118-72.4785 44.0606-72.4785C23.5127-72.4785 6.83936-55.8086 6.83594-35.2051C6.83936-34.52 7.36427-34.0859 7.95852-34.0859C8.51077-34.0859 9.0391-34.5234 9.0391-35.2085C9.0391-54.6099 24.7046-70.2334 44.0606-70.2334C63.4165-70.2334 79.04-54.6099 79.04-35.2539C79.04-15.898 63.4165-0.274438 44.0606-0.274438C31.1592-0.274438 19.8453-7.21095 13.8111-17.7309C13.4429-18.2661 12.7964-18.4399 12.2158-18.1797C11.7295-17.8774 11.5557-17.1548 11.9341-16.5219C18.3467-5.4531 30.3946 1.97072 44.0606 1.97072C64.6118 1.97072 81.2886-14.7026 81.2886-35.2539Z" data-clipstroke-keyframes="0 0 0 2.7614884 2.7705433 0 0.18530789 2.8620439 2.6745818 0 0.4599029 2.0002847 2.5446386 0 0.7299068 2.138525 2.4146955 0 1 2.2764328 2.2847095"/>
  </g>
 </g>
 <g id="Data">
  <g id="Black-L-draw-attachment-data" data-d="0 1 0 2875.54 1520.87"/>
  <g id="Heavy-L-draw-attachment-data" data-d="0 1 0 2578.56 1520.85"/>
  <g id="Bold-L-draw-attachment-data" data-d="0 1 0 2281.53 1520.84"/>
  <g id="Semibold-L-draw-attachment-data" data-d="0 1 0 1984.6 1520.82"/>
  <g id="Medium-L-draw-attachment-data" data-d="0 1 0 1687.72 1520.81"/>
  <g id="Regular-L-draw-attachment-data" data-d="0 1 0 1390.79 1520.8"/>
  <g id="Light-L-draw-attachment-data" data-d="0 1 0 1093.9 1520.8"/>
  <g id="Thin-L-draw-attachment-data" data-d="0 1 0 796.951 1520.79"/>
  <g id="Ultralight-L-draw-attachment-data" data-d="0 1 0 500.117 1520.79"/>
  <g id="Black-M-draw-attachment-data" data-d="0 1 0 2888.77 1090.86"/>
  <g id="Heavy-M-draw-attachment-data" data-d="0 1 0 2591.82 1090.84"/>
  <g id="Bold-M-draw-attachment-data" data-d="0 1 0 2294.84 1090.83"/>
  <g id="Semibold-M-draw-attachment-data" data-d="0 1 0 1997.94 1090.82"/>
  <g id="Medium-M-draw-attachment-data" data-d="0 1 0 1701.09 1090.81"/>
  <g id="Regular-M-draw-attachment-data" data-d="0 1 0 1404.2 1090.8"/>
  <g id="Light-M-draw-attachment-data" data-d="0 1 0 1107.33 1090.79"/>
  <g id="Thin-M-draw-attachment-data" data-d="0 1 0 810.4 1090.79"/>
  <g id="Ultralight-M-draw-attachment-data" data-d="0 1 0 513.578 1090.79"/>
  <g id="Black-S-draw-attachment-data" data-d="0 1 0 2898.49 660.844"/>
  <g id="Heavy-S-draw-attachment-data" data-d="0 1 0 2601.59 660.832"/>
  <g id="Bold-S-draw-attachment-data" data-d="0 1 0 2304.67 660.818"/>
  <g id="Semibold-S-draw-attachment-data" data-d="0 1 0 2007.82 660.809"/>
  <g id="Medium-S-draw-attachment-data" data-d="0 1 0 1711 660.802"/>
  <g id="Regular-S-draw-attachment-data" data-d="0 1 0 1414.15 660.793"/>
  <g id="Light-S-draw-attachment-data" data-d="0 1 0 1117.3 660.79"/>
  <g id="Thin-S-draw-attachment-data" data-d="0 1 0 820.395 660.786"/>
  <g id="Ultralight-S-draw-attachment-data" data-d="0 1 0 523.586 660.784"/>
 </g>
</svg>
